{"glyphs":{"\u0000":{"ha":0,"x_min":0,"x_max":0,"o":""},"\n":{"ha":0,"x_min":0,"x_max":0,"o":""},"\r":{"ha":0,"x_min":0,"x_max":0,"o":""}," ":{"ha":690,"x_min":0,"x_max":0,"o":""},"A":{"ha":1377,"x_min":3,"x_max":1375,"o":"m 1224 532 q 1284 362 1244 475 q 1344 193 1324 249 q 1314 48 1375 104 q 1165 7 1253 -9 q 1047 111 1078 23 l 927 450 q 462 444 694 430 q 288 78 370 243 q 178 0 251 4 q 62 42 115 -4 q 4 159 5 90 q 22 233 4 197 q 161 524 83 357 q 131 614 130 562 q 173 720 132 671 q 271 768 215 768 q 553 1462 426 1121 q 593 1524 566 1500 q 671 1577 625 1561 q 766 1576 718 1592 q 842 1508 814 1560 q 874 1448 858 1480 q 902 1391 890 1417 q 931 1328 915 1366 q 956 1270 947 1290 q 982 1205 965 1249 q 1005 1146 999 1161 q 1029 1081 1011 1131 q 1050 1021 1047 1031 q 1074 956 1054 1011 q 1095 895 1093 900 q 1118 832 1103 873 q 1140 769 1133 790 q 1249 665 1226 748 q 1250 597 1257 633 q 1224 532 1244 562 m 595 745 q 821 749 696 742 q 814 768 818 760 q 718 1040 734 996 q 595 745 653 878 z "},"À":{"ha":1377,"x_min":3,"x_max":1375,"o":"m 1224 532 q 1284 362 1244 475 q 1344 193 1324 249 q 1314 48 1375 104 q 1165 7 1253 -9 q 1047 111 1078 23 l 927 450 q 462 444 694 430 q 288 78 370 243 q 178 0 251 4 q 62 42 115 -4 q 4 159 5 90 q 22 233 4 197 q 161 524 83 357 q 131 614 130 562 q 173 720 132 671 q 271 768 215 768 q 553 1462 426 1121 q 593 1524 566 1500 q 671 1577 625 1561 q 766 1576 718 1592 q 842 1508 814 1560 q 874 1448 858 1480 q 902 1391 890 1417 q 931 1328 915 1366 q 956 1270 947 1290 q 982 1205 965 1249 q 1005 1146 999 1161 q 1029 1081 1011 1131 q 1050 1021 1047 1031 q 1074 956 1054 1011 q 1095 895 1093 900 q 1118 832 1103 873 q 1140 769 1133 790 q 1249 665 1226 748 q 1250 597 1257 633 q 1224 532 1244 562 m 595 745 q 821 749 696 742 q 814 768 818 760 q 718 1040 734 996 q 595 745 653 878 z "},"Á":{"ha":1377,"x_min":3,"x_max":1375,"o":"m 1224 532 q 1284 362 1244 475 q 1344 193 1324 249 q 1314 48 1375 104 q 1165 7 1253 -9 q 1047 111 1078 23 l 927 450 q 462 444 694 430 q 288 78 370 243 q 178 0 251 4 q 62 42 115 -4 q 4 159 5 90 q 22 233 4 197 q 161 524 83 357 q 131 614 130 562 q 173 720 132 671 q 271 768 215 768 q 553 1462 426 1121 q 593 1524 566 1500 q 671 1577 625 1561 q 766 1576 718 1592 q 842 1508 814 1560 q 874 1448 858 1480 q 902 1391 890 1417 q 931 1328 915 1366 q 956 1270 947 1290 q 982 1205 965 1249 q 1005 1146 999 1161 q 1029 1081 1011 1131 q 1050 1021 1047 1031 q 1074 956 1054 1011 q 1095 895 1093 900 q 1118 832 1103 873 q 1140 769 1133 790 q 1249 665 1226 748 q 1250 597 1257 633 q 1224 532 1244 562 m 595 745 q 821 749 696 742 q 814 768 818 760 q 718 1040 734 996 q 595 745 653 878 z "},"Â":{"ha":1377,"x_min":3,"x_max":1375,"o":"m 1224 532 q 1284 362 1244 475 q 1344 193 1324 249 q 1314 48 1375 104 q 1165 7 1253 -9 q 1047 111 1078 23 l 927 450 q 462 444 694 430 q 288 78 370 243 q 178 0 251 4 q 62 42 115 -4 q 4 159 5 90 q 22 233 4 197 q 161 524 83 357 q 131 614 130 562 q 173 720 132 671 q 271 768 215 768 q 553 1462 426 1121 q 593 1524 566 1500 q 671 1577 625 1561 q 766 1576 718 1592 q 842 1508 814 1560 q 874 1448 858 1480 q 902 1391 890 1417 q 931 1328 915 1366 q 956 1270 947 1290 q 982 1205 965 1249 q 1005 1146 999 1161 q 1029 1081 1011 1131 q 1050 1021 1047 1031 q 1074 956 1054 1011 q 1095 895 1093 900 q 1118 832 1103 873 q 1140 769 1133 790 q 1249 665 1226 748 q 1250 597 1257 633 q 1224 532 1244 562 m 595 745 q 821 749 696 742 q 814 768 818 760 q 718 1040 734 996 q 595 745 653 878 z "},"Ã":{"ha":1377,"x_min":3,"x_max":1375,"o":"m 1224 532 q 1284 362 1244 475 q 1344 193 1324 249 q 1314 48 1375 104 q 1165 7 1253 -9 q 1047 111 1078 23 l 927 450 q 462 444 694 430 q 288 78 370 243 q 178 0 251 4 q 62 42 115 -4 q 4 159 5 90 q 22 233 4 197 q 161 524 83 357 q 131 614 130 562 q 173 720 132 671 q 271 768 215 768 q 553 1462 426 1121 q 593 1524 566 1500 q 671 1577 625 1561 q 766 1576 718 1592 q 842 1508 814 1560 q 874 1448 858 1480 q 902 1391 890 1417 q 931 1328 915 1366 q 956 1270 947 1290 q 982 1205 965 1249 q 1005 1146 999 1161 q 1029 1081 1011 1131 q 1050 1021 1047 1031 q 1074 956 1054 1011 q 1095 895 1093 900 q 1118 832 1103 873 q 1140 769 1133 790 q 1249 665 1226 748 q 1250 597 1257 633 q 1224 532 1244 562 m 595 745 q 821 749 696 742 q 814 768 818 760 q 718 1040 734 996 q 595 745 653 878 z "},"Ä":{"ha":1377,"x_min":3,"x_max":1375,"o":"m 1224 532 q 1284 362 1244 475 q 1344 193 1324 249 q 1314 48 1375 104 q 1165 7 1253 -9 q 1047 111 1078 23 l 927 450 q 462 444 694 430 q 288 78 370 243 q 178 0 251 4 q 62 42 115 -4 q 4 159 5 90 q 22 233 4 197 q 161 524 83 357 q 131 614 130 562 q 173 720 132 671 q 271 768 215 768 q 553 1462 426 1121 q 593 1524 566 1500 q 671 1577 625 1561 q 766 1576 718 1592 q 842 1508 814 1560 q 874 1448 858 1480 q 902 1391 890 1417 q 931 1328 915 1366 q 956 1270 947 1290 q 982 1205 965 1249 q 1005 1146 999 1161 q 1029 1081 1011 1131 q 1050 1021 1047 1031 q 1074 956 1054 1011 q 1095 895 1093 900 q 1118 832 1103 873 q 1140 769 1133 790 q 1249 665 1226 748 q 1250 597 1257 633 q 1224 532 1244 562 m 595 745 q 821 749 696 742 q 814 768 818 760 q 718 1040 734 996 q 595 745 653 878 z "},"Å":{"ha":1377,"x_min":3,"x_max":1375,"o":"m 1224 532 q 1284 362 1244 475 q 1344 193 1324 249 q 1314 48 1375 104 q 1165 7 1253 -9 q 1047 111 1078 23 l 927 450 q 462 444 694 430 q 288 78 370 243 q 178 0 251 4 q 62 42 115 -4 q 4 159 5 90 q 22 233 4 197 q 161 524 83 357 q 131 614 130 562 q 173 720 132 671 q 271 768 215 768 q 553 1462 426 1121 q 593 1524 566 1500 q 671 1577 625 1561 q 766 1576 718 1592 q 842 1508 814 1560 q 874 1448 858 1480 q 902 1391 890 1417 q 931 1328 915 1366 q 956 1270 947 1290 q 982 1205 965 1249 q 1005 1146 999 1161 q 1029 1081 1011 1131 q 1050 1021 1047 1031 q 1074 956 1054 1011 q 1095 895 1093 900 q 1118 832 1103 873 q 1140 769 1133 790 q 1249 665 1226 748 q 1250 597 1257 633 q 1224 532 1244 562 m 595 745 q 821 749 696 742 q 814 768 818 760 q 718 1040 734 996 q 595 745 653 878 z "},"B":{"ha":909,"x_min":37,"x_max":874,"o":"m 690 802 q 827 638 780 736 q 861 426 874 541 q 784 215 848 313 q 620 60 720 117 q 455 5 543 16 q 287 11 368 -5 q 122 66 205 28 q 55 129 73 90 q 46 213 37 168 q 46 1425 56 758 q 54 1478 46 1456 q 89 1538 62 1513 q 159 1573 116 1564 q 292 1587 224 1590 q 424 1570 360 1584 q 548 1526 488 1556 q 657 1453 608 1495 q 743 1354 706 1411 q 798 1230 780 1296 q 798 1006 829 1118 q 690 802 768 895 m 501 1147 q 450 1228 490 1196 q 355 1274 410 1261 q 359 923 358 1041 q 421 964 393 941 q 471 1015 449 987 q 501 1078 492 1044 q 501 1147 509 1112 m 557 458 q 529 539 562 503 q 448 590 496 575 q 358 595 399 604 q 355 312 357 408 q 447 321 404 307 q 521 370 490 334 q 557 458 552 406 z "},"C":{"ha":1126,"x_min":41,"x_max":1084,"o":"m 410 1534 q 572 1579 488 1571 q 729 1568 655 1587 q 870 1507 804 1550 q 984 1404 937 1464 q 1057 1265 1031 1344 q 1081 1099 1084 1185 q 1046 1004 1079 1042 q 968 956 1014 965 q 878 956 923 947 q 802 1004 833 965 q 774 1099 772 1042 q 751 1205 776 1163 q 686 1260 726 1247 q 600 1266 646 1272 q 509 1230 553 1260 q 435 1156 464 1200 q 359 569 312 968 q 387 428 368 489 q 445 328 405 368 q 478 307 463 310 q 513 307 493 303 q 680 382 610 317 q 777 544 750 448 q 803 597 785 574 q 842 633 820 621 q 889 650 863 645 q 939 652 914 656 q 988 638 964 648 q 1031 611 1013 629 q 1063 572 1050 593 q 1078 522 1076 551 q 1073 463 1081 494 q 958 233 1038 336 q 761 68 878 130 q 513 1 645 6 q 384 16 444 -2 q 279 68 324 35 q 197 150 234 102 q 135 252 160 198 q 91 368 109 306 q 62 490 72 431 q 48 610 52 549 q 43 756 45 682 q 51 909 41 831 q 74 1062 60 988 q 118 1207 89 1136 q 186 1339 148 1278 q 282 1450 225 1399 q 410 1534 339 1501 z "},"Ç":{"ha":1126,"x_min":41,"x_max":1084,"o":"m 410 1534 q 572 1579 488 1571 q 729 1568 655 1587 q 870 1507 804 1550 q 984 1404 937 1464 q 1057 1265 1031 1344 q 1081 1099 1084 1185 q 1046 1004 1079 1042 q 968 956 1014 965 q 878 956 923 947 q 802 1004 833 965 q 774 1099 772 1042 q 751 1205 776 1163 q 686 1260 726 1247 q 600 1266 646 1272 q 509 1230 553 1260 q 435 1156 464 1200 q 359 569 312 968 q 387 428 368 489 q 445 328 405 368 q 478 307 463 310 q 513 307 493 303 q 680 382 610 317 q 777 544 750 448 q 803 597 785 574 q 842 633 820 621 q 889 650 863 645 q 939 652 914 656 q 988 638 964 648 q 1031 611 1013 629 q 1063 572 1050 593 q 1078 522 1076 551 q 1073 463 1081 494 q 958 233 1038 336 q 761 68 878 130 q 513 1 645 6 q 384 16 444 -2 q 279 68 324 35 q 197 150 234 102 q 135 252 160 198 q 91 368 109 306 q 62 490 72 431 q 48 610 52 549 q 43 756 45 682 q 51 909 41 831 q 74 1062 60 988 q 118 1207 89 1136 q 186 1339 148 1278 q 282 1450 225 1399 q 410 1534 339 1501 z "},"D":{"ha":1126,"x_min":39,"x_max":1082,"o":"m 715 1534 q 828 1462 777 1504 q 917 1368 880 1419 q 984 1258 955 1316 q 1031 1135 1013 1200 q 1062 1005 1050 1070 q 1078 871 1074 941 q 1082 739 1082 802 q 1077 610 1082 675 q 1063 490 1073 549 q 1034 368 1053 431 q 990 252 1016 306 q 928 150 965 198 q 845 68 890 102 q 740 16 800 35 q 611 1 680 -2 q 340 81 467 7 q 297 30 326 50 q 236 3 269 10 q 170 3 203 -3 q 109 26 136 9 q 65 75 82 43 q 49 149 48 107 q 53 459 52 304 q 52 461 53 460 l 52 463 q 53 551 39 509 q 53 1048 54 882 q 43 1099 44 1072 q 52 1204 41 1148 q 48 1434 51 1281 q 77 1526 47 1489 q 148 1576 106 1564 q 236 1579 190 1588 q 313 1539 282 1570 q 510 1582 406 1582 q 715 1534 615 1582 m 766 569 q 690 1156 812 967 q 627 1223 665 1195 q 548 1261 589 1251 q 470 1268 508 1272 q 402 1239 432 1264 q 359 1172 372 1214 q 361 508 363 818 q 458 370 393 425 q 611 307 524 315 q 647 307 632 303 q 680 328 662 310 q 738 428 720 368 q 766 569 756 489 z "},"E":{"ha":892,"x_min":33,"x_max":880,"o":"m 629 332 q 780 325 708 369 q 856 230 835 291 q 840 109 880 161 q 785 66 819 83 q 621 11 702 28 q 452 5 540 -5 q 288 60 363 16 q 123 216 188 119 q 45 426 58 313 q 80 638 33 541 q 218 802 127 736 q 109 1006 140 895 q 109 1230 79 1118 q 164 1354 127 1296 q 250 1453 201 1411 q 359 1526 299 1495 q 483 1570 419 1556 q 615 1587 547 1584 q 748 1573 684 1590 q 850 1489 826 1556 q 842 1364 871 1428 q 753 1280 812 1301 q 667 1276 713 1266 q 563 1277 618 1287 q 464 1233 509 1267 q 406 1147 418 1198 q 413 1058 395 1102 q 468 981 431 1013 q 547 925 504 948 q 631 892 590 902 q 733 807 709 875 q 724 682 755 747 q 635 599 695 620 q 550 595 595 585 q 461 590 509 605 q 379 539 412 575 q 350 458 345 503 q 384 372 355 408 q 454 323 413 337 q 541 311 494 309 q 629 332 588 313 z "},"È":{"ha":892,"x_min":33,"x_max":880,"o":"m 629 332 q 780 325 708 369 q 856 230 835 291 q 840 109 880 161 q 785 66 819 83 q 621 11 702 28 q 452 5 540 -5 q 288 60 363 16 q 123 216 188 119 q 45 426 58 313 q 80 638 33 541 q 218 802 127 736 q 109 1006 140 895 q 109 1230 79 1118 q 164 1354 127 1296 q 250 1453 201 1411 q 359 1526 299 1495 q 483 1570 419 1556 q 615 1587 547 1584 q 748 1573 684 1590 q 850 1489 826 1556 q 842 1364 871 1428 q 753 1280 812 1301 q 667 1276 713 1266 q 563 1277 618 1287 q 464 1233 509 1267 q 406 1147 418 1198 q 413 1058 395 1102 q 468 981 431 1013 q 547 925 504 948 q 631 892 590 902 q 733 807 709 875 q 724 682 755 747 q 635 599 695 620 q 550 595 595 585 q 461 590 509 605 q 379 539 412 575 q 350 458 345 503 q 384 372 355 408 q 454 323 413 337 q 541 311 494 309 q 629 332 588 313 z "},"É":{"ha":892,"x_min":33,"x_max":880,"o":"m 629 332 q 780 325 708 369 q 856 230 835 291 q 840 109 880 161 q 785 66 819 83 q 621 11 702 28 q 452 5 540 -5 q 288 60 363 16 q 123 216 188 119 q 45 426 58 313 q 80 638 33 541 q 218 802 127 736 q 109 1006 140 895 q 109 1230 79 1118 q 164 1354 127 1296 q 250 1453 201 1411 q 359 1526 299 1495 q 483 1570 419 1556 q 615 1587 547 1584 q 748 1573 684 1590 q 850 1489 826 1556 q 842 1364 871 1428 q 753 1280 812 1301 q 667 1276 713 1266 q 563 1277 618 1287 q 464 1233 509 1267 q 406 1147 418 1198 q 413 1058 395 1102 q 468 981 431 1013 q 547 925 504 948 q 631 892 590 902 q 733 807 709 875 q 724 682 755 747 q 635 599 695 620 q 550 595 595 585 q 461 590 509 605 q 379 539 412 575 q 350 458 345 503 q 384 372 355 408 q 454 323 413 337 q 541 311 494 309 q 629 332 588 313 z "},"Ê":{"ha":892,"x_min":33,"x_max":880,"o":"m 629 332 q 780 325 708 369 q 856 230 835 291 q 840 109 880 161 q 785 66 819 83 q 621 11 702 28 q 452 5 540 -5 q 288 60 363 16 q 123 216 188 119 q 45 426 58 313 q 80 638 33 541 q 218 802 127 736 q 109 1006 140 895 q 109 1230 79 1118 q 164 1354 127 1296 q 250 1453 201 1411 q 359 1526 299 1495 q 483 1570 419 1556 q 615 1587 547 1584 q 748 1573 684 1590 q 850 1489 826 1556 q 842 1364 871 1428 q 753 1280 812 1301 q 667 1276 713 1266 q 563 1277 618 1287 q 464 1233 509 1267 q 406 1147 418 1198 q 413 1058 395 1102 q 468 981 431 1013 q 547 925 504 948 q 631 892 590 902 q 733 807 709 875 q 724 682 755 747 q 635 599 695 620 q 550 595 595 585 q 461 590 509 605 q 379 539 412 575 q 350 458 345 503 q 384 372 355 408 q 454 323 413 337 q 541 311 494 309 q 629 332 588 313 z "},"Ë":{"ha":892,"x_min":33,"x_max":880,"o":"m 629 332 q 780 325 708 369 q 856 230 835 291 q 840 109 880 161 q 785 66 819 83 q 621 11 702 28 q 452 5 540 -5 q 288 60 363 16 q 123 216 188 119 q 45 426 58 313 q 80 638 33 541 q 218 802 127 736 q 109 1006 140 895 q 109 1230 79 1118 q 164 1354 127 1296 q 250 1453 201 1411 q 359 1526 299 1495 q 483 1570 419 1556 q 615 1587 547 1584 q 748 1573 684 1590 q 850 1489 826 1556 q 842 1364 871 1428 q 753 1280 812 1301 q 667 1276 713 1266 q 563 1277 618 1287 q 464 1233 509 1267 q 406 1147 418 1198 q 413 1058 395 1102 q 468 981 431 1013 q 547 925 504 948 q 631 892 590 902 q 733 807 709 875 q 724 682 755 747 q 635 599 695 620 q 550 595 595 585 q 461 590 509 605 q 379 539 412 575 q 350 458 345 503 q 384 372 355 408 q 454 323 413 337 q 541 311 494 309 q 629 332 588 313 z "},"F":{"ha":812,"x_min":43,"x_max":1181,"o":"m 1063 1561 q 1132 1524 1103 1556 q 1171 1450 1160 1491 q 1171 1372 1181 1408 q 1100 1282 1153 1310 q 981 1264 1047 1255 q 436 1189 602 1316 q 392 1101 386 1149 q 439 1009 399 1053 q 532 933 479 966 q 625 892 584 901 q 726 808 703 876 q 718 684 748 747 q 629 600 688 621 q 543 595 589 585 q 356 677 448 616 q 351 150 355 370 q 332 77 350 109 q 288 29 315 45 q 228 4 260 12 q 162 4 195 -3 q 102 29 129 12 q 59 77 75 45 q 43 150 43 109 q 43 1434 54 733 q 60 1508 43 1476 q 106 1558 78 1541 q 169 1580 134 1575 q 237 1577 204 1586 q 297 1548 269 1569 q 339 1493 326 1526 q 1063 1561 595 1625 z "},"G":{"ha":1222,"x_min":41,"x_max":1178,"o":"m 641 764 q 871 764 796 771 q 1124 635 1057 744 q 1165 521 1152 589 q 1178 401 1178 453 q 1174 266 1178 350 q 1171 149 1171 182 q 1149 68 1171 103 q 1095 18 1128 34 q 1022 1 1061 2 q 949 14 983 0 q 891 60 915 28 q 863 136 867 92 q 513 1 709 9 q 384 16 444 -2 q 279 68 324 35 q 197 150 234 102 q 135 252 160 198 q 91 368 109 306 q 62 490 72 431 q 48 610 52 549 q 43 756 45 682 q 51 909 41 831 q 74 1062 60 988 q 118 1207 89 1136 q 186 1339 148 1278 q 282 1450 225 1399 q 410 1534 339 1501 q 572 1579 488 1571 q 729 1568 655 1587 q 870 1507 804 1550 q 984 1404 937 1464 q 1057 1265 1031 1344 q 1081 1099 1084 1185 q 1046 1004 1079 1042 q 968 956 1014 965 q 878 956 923 947 q 802 1004 833 965 q 774 1099 772 1042 q 751 1205 776 1163 q 686 1260 726 1247 q 600 1266 646 1272 q 509 1230 553 1260 q 435 1156 464 1200 q 359 569 312 968 q 387 428 368 489 q 445 328 405 368 q 478 307 463 310 q 513 307 493 303 q 648 357 588 315 q 743 463 707 398 q 690 459 724 462 q 641 456 655 456 q 509 526 547 451 q 509 680 471 602 q 641 764 548 759 z "},"H":{"ha":1222,"x_min":43,"x_max":1184,"o":"m 1116 932 q 1173 850 1160 902 q 1168 759 1184 808 q 1116 683 1152 710 q 1111 150 1114 328 q 1093 77 1110 109 q 1047 29 1075 45 q 987 4 1020 12 q 922 4 954 -3 q 862 29 889 12 q 819 77 835 45 q 803 150 802 109 q 808 633 806 364 q 416 627 602 618 q 412 150 415 361 q 393 77 411 109 q 348 29 376 45 q 288 4 321 12 q 222 4 255 -3 q 163 29 190 12 q 119 77 136 45 q 104 150 103 109 q 109 677 108 370 q 43 800 43 720 q 62 869 44 834 q 109 927 79 905 q 104 1434 107 1208 q 119 1506 103 1474 q 163 1555 136 1538 q 222 1579 190 1571 q 288 1579 255 1587 q 348 1555 321 1571 q 393 1506 376 1538 q 412 1434 411 1474 q 416 934 415 1212 q 808 938 612 922 q 803 1434 806 1214 q 819 1506 802 1474 q 862 1555 835 1538 q 922 1579 889 1571 q 987 1579 954 1587 q 1047 1555 1020 1571 q 1093 1506 1075 1538 q 1111 1434 1110 1474 q 1116 932 1114 1211 z "},"I":{"ha":401,"x_min":43,"x_max":361,"o":"m 43 1434 q 74 1529 43 1491 q 150 1577 104 1568 q 240 1576 195 1586 q 317 1529 285 1567 q 351 1434 350 1490 q 351 150 361 733 q 332 77 350 109 q 288 29 315 45 q 228 4 260 12 q 162 4 195 -3 q 102 29 129 12 q 59 77 75 45 q 43 150 43 109 q 43 1434 54 733 z "},"Ì":{"ha":401,"x_min":43,"x_max":361,"o":"m 43 1434 q 74 1529 43 1491 q 150 1577 104 1568 q 240 1576 195 1586 q 317 1529 285 1567 q 351 1434 350 1490 q 351 150 361 733 q 332 77 350 109 q 288 29 315 45 q 228 4 260 12 q 162 4 195 -3 q 102 29 129 12 q 59 77 75 45 q 43 150 43 109 q 43 1434 54 733 z "},"Í":{"ha":401,"x_min":43,"x_max":361,"o":"m 43 1434 q 74 1529 43 1491 q 150 1577 104 1568 q 240 1576 195 1586 q 317 1529 285 1567 q 351 1434 350 1490 q 351 150 361 733 q 332 77 350 109 q 288 29 315 45 q 228 4 260 12 q 162 4 195 -3 q 102 29 129 12 q 59 77 75 45 q 43 150 43 109 q 43 1434 54 733 z "},"Î":{"ha":401,"x_min":43,"x_max":361,"o":"m 43 1434 q 74 1529 43 1491 q 150 1577 104 1568 q 240 1576 195 1586 q 317 1529 285 1567 q 351 1434 350 1490 q 351 150 361 733 q 332 77 350 109 q 288 29 315 45 q 228 4 260 12 q 162 4 195 -3 q 102 29 129 12 q 59 77 75 45 q 43 150 43 109 q 43 1434 54 733 z "},"Ï":{"ha":401,"x_min":43,"x_max":361,"o":"m 43 1434 q 74 1529 43 1491 q 150 1577 104 1568 q 240 1576 195 1586 q 317 1529 285 1567 q 351 1434 350 1490 q 351 150 361 733 q 332 77 350 109 q 288 29 315 45 q 228 4 260 12 q 162 4 195 -3 q 102 29 129 12 q 59 77 75 45 q 43 150 43 109 q 43 1434 54 733 z "},"J":{"ha":1196,"x_min":37,"x_max":1154,"o":"m 840 1435 q 869 1530 838 1491 q 945 1578 900 1569 q 1036 1578 990 1587 q 1114 1530 1081 1569 q 1147 1435 1146 1491 q 1147 988 1154 1235 q 1114 542 1141 741 q 1073 370 1101 450 q 998 221 1044 290 q 880 103 951 152 q 719 33 809 54 q 610 12 663 20 q 496 1 557 4 q 381 7 436 -2 q 275 34 326 16 q 180 88 224 52 q 106 175 136 124 q 43 380 50 271 q 84 586 37 489 q 227 739 132 683 q 298 762 262 760 q 362 749 334 764 q 413 709 390 734 q 446 653 436 685 q 455 589 456 621 q 436 526 455 557 q 382 474 417 495 q 361 360 333 446 q 372 338 366 347 q 387 323 378 329 q 402 314 396 317 q 424 310 409 311 q 445 309 438 309 q 470 309 452 309 q 544 311 512 309 q 615 322 576 314 q 683 345 654 330 q 737 385 711 359 q 778 447 763 411 q 806 533 795 488 q 822 633 817 579 q 829 726 827 687 q 832 828 831 764 q 834 918 833 891 q 840 1435 845 1166 z "},"K":{"ha":986,"x_min":43,"x_max":941,"o":"m 941 1423 q 933 1275 940 1343 q 909 1129 926 1206 q 858 985 892 1053 q 774 866 824 917 q 675 781 732 821 q 758 707 722 745 q 924 150 920 540 q 908 77 925 109 q 865 29 892 45 q 805 4 838 12 q 739 4 772 -3 q 679 29 706 12 q 634 77 652 45 q 616 150 617 109 q 614 238 616 203 q 606 325 612 273 q 583 419 600 378 q 541 490 566 460 q 355 612 475 566 q 351 150 354 355 q 332 77 350 109 q 288 29 315 45 q 228 4 260 12 q 162 4 195 -3 q 102 29 129 12 q 59 77 75 45 q 43 150 43 109 q 49 791 49 435 l 49 793 q 43 1435 49 1093 q 59 1508 43 1476 q 102 1556 75 1539 q 162 1580 129 1573 q 228 1580 195 1588 q 288 1556 260 1573 q 332 1508 315 1539 q 351 1435 350 1476 q 355 956 354 1223 q 469 1011 416 977 q 557 1084 523 1044 q 599 1155 583 1114 q 622 1249 616 1196 q 630 1335 629 1301 q 633 1423 632 1370 q 651 1496 633 1464 q 695 1545 668 1528 q 755 1569 722 1561 q 821 1569 788 1577 q 881 1545 854 1561 q 925 1496 908 1528 q 941 1423 941 1464 z "},"L":{"ha":1091,"x_min":42,"x_max":1067,"o":"m 871 346 q 1013 305 955 363 q 1063 191 1059 258 q 1016 78 1067 119 q 952 50 989 57 q 348 21 575 -28 q 234 70 285 35 q 150 155 184 105 q 94 262 116 205 q 61 382 73 318 q 43 590 44 480 q 53 806 42 699 q 78 1013 64 913 q 104 1230 92 1114 q 120 1437 117 1345 q 154 1532 121 1493 q 233 1579 187 1571 q 323 1579 278 1588 q 399 1532 368 1571 q 428 1437 429 1493 q 393 1038 424 1298 q 357 660 363 778 q 354 619 357 654 q 351 564 352 583 q 351 509 351 545 q 354 448 351 472 q 365 396 358 424 q 384 349 371 368 q 414 320 396 330 q 472 306 435 308 q 569 309 510 304 q 631 315 627 315 q 871 346 741 319 z "},"M":{"ha":1265,"x_min":39,"x_max":1221,"o":"m 1009 1578 q 1089 1580 1054 1587 q 1146 1555 1124 1574 q 1184 1507 1168 1535 q 1207 1443 1200 1478 q 1217 1371 1213 1408 q 1220 1296 1221 1333 q 1220 1225 1219 1258 q 1219 1179 1219 1194 l 1219 149 q 1197 66 1219 101 q 1140 16 1174 32 q 1065 1 1105 1 q 991 16 1025 1 q 934 66 957 32 q 911 149 911 101 l 911 785 q 916 989 911 869 q 897 961 913 985 q 877 931 881 937 q 859 904 873 926 q 839 873 844 882 q 823 845 834 864 q 805 813 811 825 q 792 784 800 801 q 779 751 784 767 q 770 720 774 736 q 699 629 753 658 q 583 615 644 600 q 489 684 522 630 q 382 869 444 757 q 352 146 387 464 q 273 24 343 64 q 146 3 213 -11 q 54 72 79 17 q 44 146 39 104 q 72 582 66 347 q 73 999 78 817 q 56 1436 68 1181 q 71 1512 54 1479 q 117 1561 89 1545 q 182 1582 146 1578 q 251 1577 218 1586 q 313 1543 285 1567 q 354 1482 341 1518 q 610 1086 466 1337 q 672 1179 629 1116 q 736 1274 715 1241 q 769 1329 747 1292 q 807 1393 791 1366 q 848 1454 823 1419 q 896 1511 873 1488 q 948 1553 918 1534 q 1009 1578 978 1572 z "},"N":{"ha":1079,"x_min":43,"x_max":1040,"o":"m 1033 1434 l 1033 149 q 1003 44 1040 83 q 908 2 966 6 q 823 8 864 -5 q 753 58 782 22 q 725 149 725 95 q 694 300 716 222 q 635 461 673 377 q 570 602 598 546 q 495 747 543 657 q 376 947 451 831 q 364 967 372 954 q 351 986 355 980 q 357 785 357 850 q 356 467 357 678 q 356 149 356 255 q 339 76 356 108 q 295 27 322 44 q 235 3 268 11 q 170 3 203 -5 q 110 27 137 11 q 66 76 83 44 q 49 149 49 108 l 49 785 q 46 977 49 852 q 43 1203 43 1101 q 49 1395 43 1305 q 99 1527 54 1472 q 218 1584 144 1582 q 260 1579 240 1585 q 296 1568 281 1574 q 329 1547 311 1563 q 357 1523 347 1531 q 384 1492 366 1514 q 407 1461 401 1469 q 431 1428 412 1453 q 710 994 579 1220 q 718 981 712 990 q 725 968 723 972 l 725 1434 q 748 1516 725 1481 q 805 1566 770 1550 q 879 1581 839 1581 q 953 1566 919 1581 q 1010 1516 987 1550 q 1033 1434 1033 1481 z "},"Ñ":{"ha":1079,"x_min":43,"x_max":1040,"o":"m 1033 1434 l 1033 149 q 1003 44 1040 83 q 908 2 966 6 q 823 8 864 -5 q 753 58 782 22 q 725 149 725 95 q 694 300 716 222 q 635 461 673 377 q 570 602 598 546 q 495 747 543 657 q 376 947 451 831 q 364 967 372 954 q 351 986 355 980 q 357 785 357 850 q 356 467 357 678 q 356 149 356 255 q 339 76 356 108 q 295 27 322 44 q 235 3 268 11 q 170 3 203 -5 q 110 27 137 11 q 66 76 83 44 q 49 149 49 108 l 49 785 q 46 977 49 852 q 43 1203 43 1101 q 49 1395 43 1305 q 99 1527 54 1472 q 218 1584 144 1582 q 260 1579 240 1585 q 296 1568 281 1574 q 329 1547 311 1563 q 357 1523 347 1531 q 384 1492 366 1514 q 407 1461 401 1469 q 431 1428 412 1453 q 710 994 579 1220 q 718 981 712 990 q 725 968 723 972 l 725 1434 q 748 1516 725 1481 q 805 1566 770 1550 q 879 1581 839 1581 q 953 1566 919 1581 q 1010 1516 987 1550 q 1033 1434 1033 1481 z "},"O":{"ha":1530,"x_min":14,"x_max":1497,"o":"m 814 1583 q 1133 1496 988 1575 q 1370 1279 1278 1417 q 1480 967 1461 1141 q 1455 649 1497 812 q 1321 342 1413 485 q 1104 107 1230 199 q 885 11 1005 35 q 651 11 765 -12 q 432 97 537 34 q 250 253 326 159 q 56 697 97 443 q 107 1177 14 951 q 220 1357 151 1280 q 378 1482 290 1434 q 565 1554 466 1529 q 775 1583 663 1579 q 795 1584 782 1584 q 814 1583 808 1584 m 1177 833 q 1142 1055 1185 956 q 1008 1214 1099 1154 q 795 1276 918 1274 q 654 1260 719 1275 q 536 1215 590 1246 q 443 1140 481 1185 q 380 1033 404 1096 q 352 890 356 969 q 359 745 348 819 q 400 598 371 670 q 471 466 429 526 q 576 365 513 407 q 714 310 640 323 q 839 318 778 299 q 948 376 899 336 q 1039 471 997 416 q 1110 589 1081 526 q 1156 714 1139 651 q 1177 833 1174 777 z "},"Ò":{"ha":1530,"x_min":14,"x_max":1497,"o":"m 814 1583 q 1133 1496 988 1575 q 1370 1279 1278 1417 q 1480 967 1461 1141 q 1455 649 1497 812 q 1321 342 1413 485 q 1104 107 1230 199 q 885 11 1005 35 q 651 11 765 -12 q 432 97 537 34 q 250 253 326 159 q 56 697 97 443 q 107 1177 14 951 q 220 1357 151 1280 q 378 1482 290 1434 q 565 1554 466 1529 q 775 1583 663 1579 q 795 1584 782 1584 q 814 1583 808 1584 m 1177 833 q 1142 1055 1185 956 q 1008 1214 1099 1154 q 795 1276 918 1274 q 654 1260 719 1275 q 536 1215 590 1246 q 443 1140 481 1185 q 380 1033 404 1096 q 352 890 356 969 q 359 745 348 819 q 400 598 371 670 q 471 466 429 526 q 576 365 513 407 q 714 310 640 323 q 839 318 778 299 q 948 376 899 336 q 1039 471 997 416 q 1110 589 1081 526 q 1156 714 1139 651 q 1177 833 1174 777 z "},"Ó":{"ha":1530,"x_min":14,"x_max":1497,"o":"m 814 1583 q 1133 1496 988 1575 q 1370 1279 1278 1417 q 1480 967 1461 1141 q 1455 649 1497 812 q 1321 342 1413 485 q 1104 107 1230 199 q 885 11 1005 35 q 651 11 765 -12 q 432 97 537 34 q 250 253 326 159 q 56 697 97 443 q 107 1177 14 951 q 220 1357 151 1280 q 378 1482 290 1434 q 565 1554 466 1529 q 775 1583 663 1579 q 795 1584 782 1584 q 814 1583 808 1584 m 1177 833 q 1142 1055 1185 956 q 1008 1214 1099 1154 q 795 1276 918 1274 q 654 1260 719 1275 q 536 1215 590 1246 q 443 1140 481 1185 q 380 1033 404 1096 q 352 890 356 969 q 359 745 348 819 q 400 598 371 670 q 471 466 429 526 q 576 365 513 407 q 714 310 640 323 q 839 318 778 299 q 948 376 899 336 q 1039 471 997 416 q 1110 589 1081 526 q 1156 714 1139 651 q 1177 833 1174 777 z "},"Ô":{"ha":1530,"x_min":14,"x_max":1497,"o":"m 814 1583 q 1133 1496 988 1575 q 1370 1279 1278 1417 q 1480 967 1461 1141 q 1455 649 1497 812 q 1321 342 1413 485 q 1104 107 1230 199 q 885 11 1005 35 q 651 11 765 -12 q 432 97 537 34 q 250 253 326 159 q 56 697 97 443 q 107 1177 14 951 q 220 1357 151 1280 q 378 1482 290 1434 q 565 1554 466 1529 q 775 1583 663 1579 q 795 1584 782 1584 q 814 1583 808 1584 m 1177 833 q 1142 1055 1185 956 q 1008 1214 1099 1154 q 795 1276 918 1274 q 654 1260 719 1275 q 536 1215 590 1246 q 443 1140 481 1185 q 380 1033 404 1096 q 352 890 356 969 q 359 745 348 819 q 400 598 371 670 q 471 466 429 526 q 576 365 513 407 q 714 310 640 323 q 839 318 778 299 q 948 376 899 336 q 1039 471 997 416 q 1110 589 1081 526 q 1156 714 1139 651 q 1177 833 1174 777 z "},"Õ":{"ha":1530,"x_min":14,"x_max":1497,"o":"m 814 1583 q 1133 1496 988 1575 q 1370 1279 1278 1417 q 1480 967 1461 1141 q 1455 649 1497 812 q 1321 342 1413 485 q 1104 107 1230 199 q 885 11 1005 35 q 651 11 765 -12 q 432 97 537 34 q 250 253 326 159 q 56 697 97 443 q 107 1177 14 951 q 220 1357 151 1280 q 378 1482 290 1434 q 565 1554 466 1529 q 775 1583 663 1579 q 795 1584 782 1584 q 814 1583 808 1584 m 1177 833 q 1142 1055 1185 956 q 1008 1214 1099 1154 q 795 1276 918 1274 q 654 1260 719 1275 q 536 1215 590 1246 q 443 1140 481 1185 q 380 1033 404 1096 q 352 890 356 969 q 359 745 348 819 q 400 598 371 670 q 471 466 429 526 q 576 365 513 407 q 714 310 640 323 q 839 318 778 299 q 948 376 899 336 q 1039 471 997 416 q 1110 589 1081 526 q 1156 714 1139 651 q 1177 833 1174 777 z "},"Ö":{"ha":1530,"x_min":14,"x_max":1497,"o":"m 814 1583 q 1133 1496 988 1575 q 1370 1279 1278 1417 q 1480 967 1461 1141 q 1455 649 1497 812 q 1321 342 1413 485 q 1104 107 1230 199 q 885 11 1005 35 q 651 11 765 -12 q 432 97 537 34 q 250 253 326 159 q 56 697 97 443 q 107 1177 14 951 q 220 1357 151 1280 q 378 1482 290 1434 q 565 1554 466 1529 q 775 1583 663 1579 q 795 1584 782 1584 q 814 1583 808 1584 m 1177 833 q 1142 1055 1185 956 q 1008 1214 1099 1154 q 795 1276 918 1274 q 654 1260 719 1275 q 536 1215 590 1246 q 443 1140 481 1185 q 380 1033 404 1096 q 352 890 356 969 q 359 745 348 819 q 400 598 371 670 q 471 466 429 526 q 576 365 513 407 q 714 310 640 323 q 839 318 778 299 q 948 376 899 336 q 1039 471 997 416 q 1110 589 1081 526 q 1156 714 1139 651 q 1177 833 1174 777 z "},"Ø":{"ha":1530,"x_min":14,"x_max":1497,"o":"m 814 1583 q 1133 1496 988 1575 q 1370 1279 1278 1417 q 1480 967 1461 1141 q 1455 649 1497 812 q 1321 342 1413 485 q 1104 107 1230 199 q 885 11 1005 35 q 651 11 765 -12 q 432 97 537 34 q 250 253 326 159 q 56 697 97 443 q 107 1177 14 951 q 220 1357 151 1280 q 378 1482 290 1434 q 565 1554 466 1529 q 775 1583 663 1579 q 795 1584 782 1584 q 814 1583 808 1584 m 1177 833 q 1142 1055 1185 956 q 1008 1214 1099 1154 q 795 1276 918 1274 q 654 1260 719 1275 q 536 1215 590 1246 q 443 1140 481 1185 q 380 1033 404 1096 q 352 890 356 969 q 359 745 348 819 q 400 598 371 670 q 471 466 429 526 q 576 365 513 407 q 714 310 640 323 q 839 318 778 299 q 948 376 899 336 q 1039 471 997 416 q 1110 589 1081 526 q 1156 714 1139 651 q 1177 833 1174 777 z "},"P":{"ha":1097,"x_min":43,"x_max":1106,"o":"m 682 1584 q 972 1473 858 1580 q 1099 1191 1087 1367 q 1081 992 1106 1088 q 1005 819 1056 896 q 883 677 955 741 q 726 569 810 612 q 546 502 641 526 q 355 479 450 478 q 351 150 354 315 q 332 77 350 109 q 288 29 315 45 q 228 4 260 12 q 162 4 195 -3 q 102 29 129 12 q 59 77 75 45 q 43 150 43 109 q 43 1434 54 733 q 57 1502 43 1472 q 96 1550 72 1533 q 151 1576 120 1568 q 212 1581 181 1584 q 271 1564 242 1578 q 319 1527 299 1550 q 682 1584 478 1587 m 791 1129 q 787 1201 795 1172 q 761 1246 779 1231 q 717 1268 743 1261 q 658 1275 690 1276 q 589 1271 626 1274 q 456 1247 513 1263 q 353 1196 398 1232 q 356 785 356 922 q 507 806 433 783 q 642 871 581 829 q 743 981 703 914 q 791 1129 783 1048 z "},"Q":{"ha":1544,"x_min":14,"x_max":1561,"o":"m 1493 295 q 1559 161 1560 244 q 1512 43 1557 93 q 1400 1 1463 -9 q 1338 30 1369 7 q 1164 157 1312 50 q 1104 107 1135 130 q 885 11 1005 35 q 651 11 765 -12 q 432 97 537 34 q 250 253 326 159 q 56 697 97 443 q 107 1177 14 951 q 220 1357 151 1280 q 378 1482 290 1434 q 565 1554 466 1529 q 775 1583 663 1579 q 795 1584 782 1584 q 814 1583 808 1584 q 1133 1496 988 1575 q 1370 1279 1278 1417 q 1480 967 1461 1141 q 1462 679 1495 827 q 1355 399 1429 531 l 1493 295 m 714 310 q 912 351 816 293 q 705 567 786 459 q 688 701 653 635 q 777 776 715 753 q 915 770 850 803 q 970 722 947 753 q 1109 589 1014 665 q 1177 833 1170 715 q 1142 1055 1185 956 q 1008 1214 1099 1154 q 795 1276 918 1274 q 654 1260 719 1275 q 536 1215 590 1246 q 443 1140 481 1185 q 380 1033 404 1096 q 352 890 356 969 q 359 745 348 819 q 400 598 371 670 q 471 466 429 526 q 576 365 513 407 q 714 310 640 323 z "},"R":{"ha":1145,"x_min":43,"x_max":1113,"o":"m 682 1584 q 972 1473 858 1580 q 1099 1190 1087 1366 q 1014 833 1113 994 q 742 577 914 672 q 750 533 745 562 q 758 488 755 503 q 765 432 760 477 q 778 350 770 387 q 797 291 785 313 q 840 253 823 276 q 864 205 858 231 q 870 152 871 180 q 860 99 870 124 q 834 53 850 75 q 795 19 819 32 q 743 2 771 6 q 682 9 715 -2 q 609 44 640 21 q 556 101 577 67 q 521 168 534 134 q 495 246 508 201 q 458 424 481 298 q 450 484 456 431 q 355 479 406 479 q 351 150 354 315 q 332 77 350 109 q 288 29 315 45 q 228 4 260 12 q 162 4 195 -3 q 102 29 129 12 q 59 77 75 45 q 43 150 43 109 q 43 1434 54 733 q 57 1502 43 1472 q 96 1550 72 1533 q 151 1576 120 1568 q 212 1581 181 1584 q 271 1564 242 1578 q 319 1527 299 1550 q 682 1584 478 1587 m 791 1129 q 787 1201 795 1172 q 761 1246 779 1231 q 717 1268 743 1261 q 658 1275 690 1276 q 589 1271 626 1274 q 456 1247 513 1263 q 353 1196 398 1232 q 356 785 356 922 q 507 806 433 783 q 642 871 581 829 q 743 981 703 914 q 791 1129 783 1048 z "},"S":{"ha":1254,"x_min":28,"x_max":1214,"o":"m 974 779 q 1148 616 1082 719 q 1208 397 1214 513 q 1122 189 1203 276 q 917 54 1040 102 q 624 -1 777 1 q 328 55 472 -3 q 85 223 184 112 q 51 367 28 288 q 123 465 68 429 q 246 482 184 506 q 303 441 277 470 q 474 329 374 361 q 686 311 573 297 q 882 380 840 330 q 898 420 897 400 q 886 457 899 440 q 856 488 873 475 q 819 513 840 502 q 696 559 767 541 q 565 584 625 576 q 434 608 506 591 q 309 654 362 626 q 123 825 195 713 q 44 1065 51 936 q 77 1270 38 1175 q 185 1431 115 1365 q 350 1536 256 1496 q 549 1582 444 1576 q 696 1580 624 1587 q 840 1550 768 1573 q 970 1492 912 1528 q 1075 1397 1029 1455 q 1144 1265 1122 1339 q 1109 1119 1172 1176 q 960 1078 1046 1061 q 848 1183 875 1095 q 797 1244 836 1220 q 705 1276 757 1268 q 597 1282 652 1284 q 495 1269 543 1281 q 424 1238 448 1257 q 360 1152 376 1202 q 357 1055 344 1102 q 407 968 370 1008 q 493 908 443 928 q 613 874 544 888 q 736 852 682 860 q 857 826 791 844 q 974 779 923 807 z "},"T":{"ha":983,"x_min":-20,"x_max":1499,"o":"m 1329 1562 q 1460 1476 1422 1556 q 1460 1323 1499 1397 q 1329 1255 1422 1249 q 882 1276 1033 1274 q 890 891 888 1039 q 890 534 893 743 q 876 149 888 324 q 791 17 870 56 q 637 17 711 -21 q 569 149 563 56 q 583 531 581 323 q 583 886 586 739 q 574 1270 581 1033 q 174 1208 355 1254 q 74 1216 119 1195 q 7 1278 28 1237 q -17 1365 -14 1320 q 9 1451 -20 1411 q 93 1505 38 1491 q 699 1581 363 1573 q 736 1582 720 1584 q 1329 1562 958 1586 z "},"U":{"ha":1284,"x_min":43,"x_max":1240,"o":"m 909 1434 q 974 1565 901 1527 q 1128 1564 1048 1603 q 1217 1434 1208 1526 q 1234 1192 1229 1300 q 1239 958 1240 1084 q 1225 711 1239 832 q 1183 479 1211 591 q 1109 297 1159 384 q 990 142 1059 210 q 828 35 920 74 q 635 0 735 -3 q 447 32 532 3 q 303 104 363 60 q 198 216 243 149 q 124 353 152 283 q 78 514 96 422 q 52 687 60 606 q 44 869 45 768 q 45 1049 43 971 q 51 1223 47 1126 q 58 1435 57 1371 q 75 1508 58 1476 q 119 1556 92 1539 q 179 1580 146 1573 q 245 1580 212 1588 q 305 1556 278 1573 q 348 1508 332 1539 q 365 1435 365 1476 q 360 1254 364 1361 q 353 1068 357 1147 q 351 889 350 989 q 358 705 351 789 q 367 626 361 661 q 381 549 372 591 q 404 475 391 507 q 438 410 417 442 q 487 357 460 378 q 551 322 513 336 q 635 307 589 309 q 916 729 865 300 q 930 966 928 840 q 926 1196 932 1093 q 909 1434 921 1300 z "},"Ù":{"ha":1284,"x_min":43,"x_max":1240,"o":"m 909 1434 q 974 1565 901 1527 q 1128 1564 1048 1603 q 1217 1434 1208 1526 q 1234 1192 1229 1300 q 1239 958 1240 1084 q 1225 711 1239 832 q 1183 479 1211 591 q 1109 297 1159 384 q 990 142 1059 210 q 828 35 920 74 q 635 0 735 -3 q 447 32 532 3 q 303 104 363 60 q 198 216 243 149 q 124 353 152 283 q 78 514 96 422 q 52 687 60 606 q 44 869 45 768 q 45 1049 43 971 q 51 1223 47 1126 q 58 1435 57 1371 q 75 1508 58 1476 q 119 1556 92 1539 q 179 1580 146 1573 q 245 1580 212 1588 q 305 1556 278 1573 q 348 1508 332 1539 q 365 1435 365 1476 q 360 1254 364 1361 q 353 1068 357 1147 q 351 889 350 989 q 358 705 351 789 q 367 626 361 661 q 381 549 372 591 q 404 475 391 507 q 438 410 417 442 q 487 357 460 378 q 551 322 513 336 q 635 307 589 309 q 916 729 865 300 q 930 966 928 840 q 926 1196 932 1093 q 909 1434 921 1300 z "},"Ú":{"ha":1284,"x_min":43,"x_max":1240,"o":"m 909 1434 q 974 1565 901 1527 q 1128 1564 1048 1603 q 1217 1434 1208 1526 q 1234 1192 1229 1300 q 1239 958 1240 1084 q 1225 711 1239 832 q 1183 479 1211 591 q 1109 297 1159 384 q 990 142 1059 210 q 828 35 920 74 q 635 0 735 -3 q 447 32 532 3 q 303 104 363 60 q 198 216 243 149 q 124 353 152 283 q 78 514 96 422 q 52 687 60 606 q 44 869 45 768 q 45 1049 43 971 q 51 1223 47 1126 q 58 1435 57 1371 q 75 1508 58 1476 q 119 1556 92 1539 q 179 1580 146 1573 q 245 1580 212 1588 q 305 1556 278 1573 q 348 1508 332 1539 q 365 1435 365 1476 q 360 1254 364 1361 q 353 1068 357 1147 q 351 889 350 989 q 358 705 351 789 q 367 626 361 661 q 381 549 372 591 q 404 475 391 507 q 438 410 417 442 q 487 357 460 378 q 551 322 513 336 q 635 307 589 309 q 916 729 865 300 q 930 966 928 840 q 926 1196 932 1093 q 909 1434 921 1300 z "},"Û":{"ha":1284,"x_min":43,"x_max":1240,"o":"m 909 1434 q 974 1565 901 1527 q 1128 1564 1048 1603 q 1217 1434 1208 1526 q 1234 1192 1229 1300 q 1239 958 1240 1084 q 1225 711 1239 832 q 1183 479 1211 591 q 1109 297 1159 384 q 990 142 1059 210 q 828 35 920 74 q 635 0 735 -3 q 447 32 532 3 q 303 104 363 60 q 198 216 243 149 q 124 353 152 283 q 78 514 96 422 q 52 687 60 606 q 44 869 45 768 q 45 1049 43 971 q 51 1223 47 1126 q 58 1435 57 1371 q 75 1508 58 1476 q 119 1556 92 1539 q 179 1580 146 1573 q 245 1580 212 1588 q 305 1556 278 1573 q 348 1508 332 1539 q 365 1435 365 1476 q 360 1254 364 1361 q 353 1068 357 1147 q 351 889 350 989 q 358 705 351 789 q 367 626 361 661 q 381 549 372 591 q 404 475 391 507 q 438 410 417 442 q 487 357 460 378 q 551 322 513 336 q 635 307 589 309 q 916 729 865 300 q 930 966 928 840 q 926 1196 932 1093 q 909 1434 921 1300 z "},"Ü":{"ha":1284,"x_min":43,"x_max":1240,"o":"m 909 1434 q 974 1565 901 1527 q 1128 1564 1048 1603 q 1217 1434 1208 1526 q 1234 1192 1229 1300 q 1239 958 1240 1084 q 1225 711 1239 832 q 1183 479 1211 591 q 1109 297 1159 384 q 990 142 1059 210 q 828 35 920 74 q 635 0 735 -3 q 447 32 532 3 q 303 104 363 60 q 198 216 243 149 q 124 353 152 283 q 78 514 96 422 q 52 687 60 606 q 44 869 45 768 q 45 1049 43 971 q 51 1223 47 1126 q 58 1435 57 1371 q 75 1508 58 1476 q 119 1556 92 1539 q 179 1580 146 1573 q 245 1580 212 1588 q 305 1556 278 1573 q 348 1508 332 1539 q 365 1435 365 1476 q 360 1254 364 1361 q 353 1068 357 1147 q 351 889 350 989 q 358 705 351 789 q 367 626 361 661 q 381 549 372 591 q 404 475 391 507 q 438 410 417 442 q 487 357 460 378 q 551 322 513 336 q 635 307 589 309 q 916 729 865 300 q 930 966 928 840 q 926 1196 932 1093 q 909 1434 921 1300 z "},"V":{"ha":1249,"x_min":-34,"x_max":1373,"o":"m 1045 1486 q 1163 1589 1076 1573 q 1311 1549 1250 1605 q 1341 1404 1373 1492 q 1216 1048 1299 1285 q 1090 692 1132 811 q 946 304 992 416 q 833 71 891 174 q 757 3 805 19 q 662 2 709 -14 q 584 55 616 18 q 544 117 557 79 q 5 1363 307 755 q 9 1512 -33 1440 q 102 1588 41 1567 q 226 1573 172 1613 q 271 1518 253 1554 q 709 538 511 1031 q 809 819 722 572 l 1045 1486 z "},"W":{"ha":2155,"x_min":43,"x_max":2114,"o":"m 1773 1434 q 1839 1565 1765 1527 q 1992 1564 1912 1603 q 2081 1434 2072 1526 q 2109 982 2108 1134 q 1971 294 2113 541 q 1785 86 1898 168 q 1595 7 1702 26 q 1384 12 1489 -11 q 1193 92 1280 35 q 1058 219 1115 142 q 870 55 979 115 q 635 0 762 -4 q 447 32 532 3 q 303 104 363 60 q 198 216 243 149 q 124 353 152 283 q 78 514 96 422 q 52 687 60 606 q 44 869 45 768 q 45 1049 43 971 q 51 1223 47 1126 q 58 1435 57 1371 q 75 1508 58 1476 q 119 1556 92 1539 q 179 1580 146 1573 q 245 1580 212 1588 q 305 1556 278 1573 q 348 1508 332 1539 q 365 1435 365 1476 q 360 1254 364 1361 q 353 1068 357 1147 q 351 889 350 989 q 358 705 351 789 q 367 626 361 661 q 381 549 372 591 q 404 475 391 507 q 438 410 417 442 q 487 357 460 378 q 551 322 513 336 q 635 307 589 309 q 916 729 865 300 q 930 966 928 840 q 926 1196 932 1093 q 909 1434 921 1300 q 974 1565 901 1527 q 1128 1564 1048 1603 q 1217 1434 1208 1526 q 1236 1166 1230 1284 q 1237 905 1242 1048 q 1214 637 1233 761 q 1233 554 1223 591 q 1260 476 1243 517 q 1303 401 1277 434 q 1362 348 1329 368 q 1541 313 1453 294 q 1690 416 1628 332 q 1743 517 1722 460 q 1773 640 1763 574 q 1786 759 1782 705 q 1792 879 1790 812 q 1793 905 1793 897 q 1773 1434 1801 1119 z "},"X":{"ha":1242,"x_min":-90,"x_max":1255,"o":"m 956 1504 q 1063 1584 991 1578 q 1177 1543 1124 1588 q 1237 1426 1234 1495 q 1221 1349 1239 1387 q 1135 1189 1183 1267 q 1022 1026 1087 1111 q 913 888 956 941 q 787 741 869 836 q 1198 267 987 509 q 1232 123 1254 202 q 1159 24 1213 60 q 1036 8 1098 -16 q 980 50 1005 20 q 585 507 848 201 q 189 50 321 201 q 60 3 134 -14 q -37 71 1 16 q -63 202 -81 134 q -28 267 -54 237 q 382 741 109 425 q 256 888 300 836 q 148 1026 213 941 q 34 1189 82 1111 q -52 1349 -14 1267 q -45 1499 -89 1428 q 50 1575 -11 1554 q 171 1559 119 1599 q 214 1504 197 1539 q 365 1249 277 1370 q 585 975 453 1128 q 726 1144 671 1076 q 847 1312 781 1213 q 956 1504 913 1411 z "},"Y":{"ha":1091,"x_min":41,"x_max":1101,"o":"m 794 1434 q 811 1507 794 1475 q 856 1555 829 1539 q 916 1580 883 1572 q 982 1580 949 1588 q 1041 1555 1015 1572 q 1085 1507 1068 1539 q 1101 1434 1101 1475 q 1098 1233 1101 1318 q 1084 1036 1095 1149 q 1054 834 1073 924 q 1000 646 1035 745 q 916 463 965 547 q 635 150 806 271 q 250 1 464 29 q 174 19 211 -4 q 117 80 138 42 q 96 155 96 117 q 141 260 97 220 q 250 309 184 300 q 572 505 429 332 q 365 576 464 520 q 194 718 266 632 q 116 838 147 773 q 70 967 84 903 q 48 1102 56 1031 q 43 1241 41 1173 q 45 1383 45 1310 q 47 1435 46 1417 q 81 1530 48 1491 q 159 1577 113 1569 q 249 1577 204 1586 q 325 1530 294 1569 q 355 1435 356 1491 q 350 1343 354 1404 q 345 1238 346 1281 q 346 1142 344 1196 q 361 1042 349 1088 q 398 957 374 995 q 542 830 451 871 q 725 819 632 789 q 735 822 728 821 q 775 1030 762 914 q 791 1222 789 1147 q 794 1434 793 1298 z "},"Ý":{"ha":1091,"x_min":41,"x_max":1101,"o":"m 794 1434 q 811 1507 794 1475 q 856 1555 829 1539 q 916 1580 883 1572 q 982 1580 949 1588 q 1041 1555 1015 1572 q 1085 1507 1068 1539 q 1101 1434 1101 1475 q 1098 1233 1101 1318 q 1084 1036 1095 1149 q 1054 834 1073 924 q 1000 646 1035 745 q 916 463 965 547 q 635 150 806 271 q 250 1 464 29 q 174 19 211 -4 q 117 80 138 42 q 96 155 96 117 q 141 260 97 220 q 250 309 184 300 q 572 505 429 332 q 365 576 464 520 q 194 718 266 632 q 116 838 147 773 q 70 967 84 903 q 48 1102 56 1031 q 43 1241 41 1173 q 45 1383 45 1310 q 47 1435 46 1417 q 81 1530 48 1491 q 159 1577 113 1569 q 249 1577 204 1586 q 325 1530 294 1569 q 355 1435 356 1491 q 350 1343 354 1404 q 345 1238 346 1281 q 346 1142 344 1196 q 361 1042 349 1088 q 398 957 374 995 q 542 830 451 871 q 725 819 632 789 q 735 822 728 821 q 775 1030 762 914 q 791 1222 789 1147 q 794 1434 793 1298 z "},"Ÿ":{"ha":1091,"x_min":41,"x_max":1101,"o":"m 794 1434 q 811 1507 794 1475 q 856 1555 829 1539 q 916 1580 883 1572 q 982 1580 949 1588 q 1041 1555 1015 1572 q 1085 1507 1068 1539 q 1101 1434 1101 1475 q 1098 1233 1101 1318 q 1084 1036 1095 1149 q 1054 834 1073 924 q 1000 646 1035 745 q 916 463 965 547 q 635 150 806 271 q 250 1 464 29 q 174 19 211 -4 q 117 80 138 42 q 96 155 96 117 q 141 260 97 220 q 250 309 184 300 q 572 505 429 332 q 365 576 464 520 q 194 718 266 632 q 116 838 147 773 q 70 967 84 903 q 48 1102 56 1031 q 43 1241 41 1173 q 45 1383 45 1310 q 47 1435 46 1417 q 81 1530 48 1491 q 159 1577 113 1569 q 249 1577 204 1586 q 325 1530 294 1569 q 355 1435 356 1491 q 350 1343 354 1404 q 345 1238 346 1281 q 346 1142 344 1196 q 361 1042 349 1088 q 398 957 374 995 q 542 830 451 871 q 725 819 632 789 q 735 822 728 821 q 775 1030 762 914 q 791 1222 789 1147 q 794 1434 793 1298 z "},"Z":{"ha":1398,"x_min":40,"x_max":1369,"o":"m 1128 357 q 1267 367 1200 404 q 1343 277 1320 338 q 1334 144 1369 205 q 1283 91 1316 113 q 1127 21 1212 44 q 961 0 1042 -1 q 790 12 880 1 q 699 28 758 17 q 590 47 639 40 q 497 55 541 54 q 345 38 445 56 q 196 20 245 20 q 117 42 153 20 q 64 98 81 64 q 43 173 46 132 q 63 252 40 214 q 402 755 211 510 q 843 1275 593 1000 q 212 1242 532 1283 q 136 1260 173 1236 q 79 1321 100 1283 q 58 1396 58 1358 q 103 1501 59 1461 q 212 1550 146 1541 q 1174 1561 690 1612 q 1259 1529 1221 1556 q 1314 1464 1297 1501 q 1325 1382 1332 1427 q 1283 1299 1318 1337 q 1070 1067 1149 1155 q 878 850 990 979 q 672 602 765 722 q 496 362 579 482 q 696 339 564 361 q 757 328 714 336 q 823 317 800 320 q 884 309 845 313 q 949 305 923 304 q 1009 311 976 307 q 1071 327 1042 315 q 1128 357 1101 338 z "},"a":{"ha":1008,"x_min":2,"x_max":965,"o":"m 724 1129 q 801 1154 758 1151 q 881 1143 844 1158 q 941 1093 918 1129 q 962 1007 965 1057 q 954 786 957 906 q 951 581 951 666 q 950 354 951 495 q 949 143 950 213 q 926 61 949 96 q 868 11 903 26 q 795 -5 833 -3 q 720 11 756 -7 q 664 60 684 28 q 431 -1 555 5 q 174 76 277 -8 q 53 313 71 160 q 213 993 2 757 q 450 1139 311 1102 q 724 1129 589 1177 m 453 310 q 559 352 511 320 q 638 433 607 384 q 641 437 639 434 q 643 440 642 439 q 648 827 644 666 q 642 830 646 827 q 567 857 602 852 q 505 848 532 861 q 455 810 478 835 q 417 752 432 786 q 389 680 401 718 q 369 602 376 642 q 358 523 363 561 q 353 452 353 485 q 353 396 353 419 q 354 370 353 383 q 354 345 354 356 q 358 323 355 333 q 370 310 362 314 q 453 310 392 298 z "},"à":{"ha":1008,"x_min":2,"x_max":965,"o":"m 724 1129 q 801 1154 758 1151 q 881 1143 844 1158 q 941 1093 918 1129 q 962 1007 965 1057 q 954 786 957 906 q 951 581 951 666 q 950 354 951 495 q 949 143 950 213 q 926 61 949 96 q 868 11 903 26 q 795 -5 833 -3 q 720 11 756 -7 q 664 60 684 28 q 431 -1 555 5 q 174 76 277 -8 q 53 313 71 160 q 213 993 2 757 q 450 1139 311 1102 q 724 1129 589 1177 m 453 310 q 559 352 511 320 q 638 433 607 384 q 641 437 639 434 q 643 440 642 439 q 648 827 644 666 q 642 830 646 827 q 567 857 602 852 q 505 848 532 861 q 455 810 478 835 q 417 752 432 786 q 389 680 401 718 q 369 602 376 642 q 358 523 363 561 q 353 452 353 485 q 353 396 353 419 q 354 370 353 383 q 354 345 354 356 q 358 323 355 333 q 370 310 362 314 q 453 310 392 298 z "},"á":{"ha":1008,"x_min":2,"x_max":965,"o":"m 724 1129 q 801 1154 758 1151 q 881 1143 844 1158 q 941 1093 918 1129 q 962 1007 965 1057 q 954 786 957 906 q 951 581 951 666 q 950 354 951 495 q 949 143 950 213 q 926 61 949 96 q 868 11 903 26 q 795 -5 833 -3 q 720 11 756 -7 q 664 60 684 28 q 431 -1 555 5 q 174 76 277 -8 q 53 313 71 160 q 213 993 2 757 q 450 1139 311 1102 q 724 1129 589 1177 m 453 310 q 559 352 511 320 q 638 433 607 384 q 641 437 639 434 q 643 440 642 439 q 648 827 644 666 q 642 830 646 827 q 567 857 602 852 q 505 848 532 861 q 455 810 478 835 q 417 752 432 786 q 389 680 401 718 q 369 602 376 642 q 358 523 363 561 q 353 452 353 485 q 353 396 353 419 q 354 370 353 383 q 354 345 354 356 q 358 323 355 333 q 370 310 362 314 q 453 310 392 298 z "},"â":{"ha":1008,"x_min":2,"x_max":965,"o":"m 724 1129 q 801 1154 758 1151 q 881 1143 844 1158 q 941 1093 918 1129 q 962 1007 965 1057 q 954 786 957 906 q 951 581 951 666 q 950 354 951 495 q 949 143 950 213 q 926 61 949 96 q 868 11 903 26 q 795 -5 833 -3 q 720 11 756 -7 q 664 60 684 28 q 431 -1 555 5 q 174 76 277 -8 q 53 313 71 160 q 213 993 2 757 q 450 1139 311 1102 q 724 1129 589 1177 m 453 310 q 559 352 511 320 q 638 433 607 384 q 641 437 639 434 q 643 440 642 439 q 648 827 644 666 q 642 830 646 827 q 567 857 602 852 q 505 848 532 861 q 455 810 478 835 q 417 752 432 786 q 389 680 401 718 q 369 602 376 642 q 358 523 363 561 q 353 452 353 485 q 353 396 353 419 q 354 370 353 383 q 354 345 354 356 q 358 323 355 333 q 370 310 362 314 q 453 310 392 298 z "},"ã":{"ha":1008,"x_min":2,"x_max":965,"o":"m 724 1129 q 801 1154 758 1151 q 881 1143 844 1158 q 941 1093 918 1129 q 962 1007 965 1057 q 954 786 957 906 q 951 581 951 666 q 950 354 951 495 q 949 143 950 213 q 926 61 949 96 q 868 11 903 26 q 795 -5 833 -3 q 720 11 756 -7 q 664 60 684 28 q 431 -1 555 5 q 174 76 277 -8 q 53 313 71 160 q 213 993 2 757 q 450 1139 311 1102 q 724 1129 589 1177 m 453 310 q 559 352 511 320 q 638 433 607 384 q 641 437 639 434 q 643 440 642 439 q 648 827 644 666 q 642 830 646 827 q 567 857 602 852 q 505 848 532 861 q 455 810 478 835 q 417 752 432 786 q 389 680 401 718 q 369 602 376 642 q 358 523 363 561 q 353 452 353 485 q 353 396 353 419 q 354 370 353 383 q 354 345 354 356 q 358 323 355 333 q 370 310 362 314 q 453 310 392 298 z "},"ä":{"ha":1008,"x_min":2,"x_max":965,"o":"m 724 1129 q 801 1154 758 1151 q 881 1143 844 1158 q 941 1093 918 1129 q 962 1007 965 1057 q 954 786 957 906 q 951 581 951 666 q 950 354 951 495 q 949 143 950 213 q 926 61 949 96 q 868 11 903 26 q 795 -5 833 -3 q 720 11 756 -7 q 664 60 684 28 q 431 -1 555 5 q 174 76 277 -8 q 53 313 71 160 q 213 993 2 757 q 450 1139 311 1102 q 724 1129 589 1177 m 453 310 q 559 352 511 320 q 638 433 607 384 q 641 437 639 434 q 643 440 642 439 q 648 827 644 666 q 642 830 646 827 q 567 857 602 852 q 505 848 532 861 q 455 810 478 835 q 417 752 432 786 q 389 680 401 718 q 369 602 376 642 q 358 523 363 561 q 353 452 353 485 q 353 396 353 419 q 354 370 353 383 q 354 345 354 356 q 358 323 355 333 q 370 310 362 314 q 453 310 392 298 z "},"å":{"ha":1008,"x_min":2,"x_max":965,"o":"m 724 1129 q 801 1154 758 1151 q 881 1143 844 1158 q 941 1093 918 1129 q 962 1007 965 1057 q 954 786 957 906 q 951 581 951 666 q 950 354 951 495 q 949 143 950 213 q 926 61 949 96 q 868 11 903 26 q 795 -5 833 -3 q 720 11 756 -7 q 664 60 684 28 q 431 -1 555 5 q 174 76 277 -8 q 53 313 71 160 q 213 993 2 757 q 450 1139 311 1102 q 724 1129 589 1177 m 453 310 q 559 352 511 320 q 638 433 607 384 q 641 437 639 434 q 643 440 642 439 q 648 827 644 666 q 642 830 646 827 q 567 857 602 852 q 505 848 532 861 q 455 810 478 835 q 417 752 432 786 q 389 680 401 718 q 369 602 376 642 q 358 523 363 561 q 353 452 353 485 q 353 396 353 419 q 354 370 353 383 q 354 345 354 356 q 358 323 355 333 q 370 310 362 314 q 453 310 392 298 z "},"b":{"ha":1108,"x_min":43,"x_max":1085,"o":"m 572 1157 q 796 1108 698 1146 q 962 989 894 1071 q 1057 557 1085 840 q 1016 334 1044 431 q 922 164 987 238 q 543 4 804 29 q 296 34 400 -9 q 235 5 269 14 q 167 3 201 -3 q 105 26 134 9 q 60 75 77 43 q 43 149 43 107 q 47 538 47 344 q 47 549 47 542 q 47 559 47 556 q 48 613 46 583 q 43 1436 50 990 q 59 1508 43 1476 q 102 1557 75 1540 q 162 1581 130 1573 q 228 1581 195 1589 q 288 1557 260 1573 q 333 1508 315 1540 q 351 1436 350 1476 q 352 1338 351 1401 q 354 1222 353 1274 q 355 1124 355 1171 q 572 1157 456 1170 m 749 557 q 752 577 749 558 q 754 599 754 595 q 756 621 755 603 q 758 645 758 639 q 759 667 758 651 q 759 691 760 683 q 756 713 758 699 q 752 735 755 726 q 746 755 749 745 q 737 774 742 766 q 673 829 715 813 q 572 850 630 844 q 476 837 517 856 q 409 780 434 818 q 371 698 385 743 q 355 603 358 654 l 355 532 q 390 345 359 393 q 414 321 399 330 q 440 309 429 312 q 475 306 452 305 q 507 308 498 307 q 542 312 516 309 q 637 338 599 319 q 697 389 675 356 q 731 460 720 421 q 749 557 743 498 z "},"c":{"ha":1042,"x_min":40,"x_max":1012,"o":"m 762 355 q 913 348 841 392 q 988 254 968 314 q 972 132 1012 184 q 917 90 951 106 q 763 31 843 54 q 596 -2 683 8 q 424 3 509 -12 q 273 62 339 19 q 163 166 210 103 q 90 303 117 230 q 52 453 63 376 q 44 606 40 530 q 146 925 53 781 q 397 1130 240 1069 q 711 1140 559 1191 q 958 946 864 1089 q 967 806 1004 874 q 877 730 939 753 q 745 740 805 705 q 692 791 714 758 q 618 849 664 834 q 527 850 573 863 q 442 804 480 838 q 366 680 388 755 q 353 526 345 605 q 384 398 361 464 q 435 319 406 333 q 542 301 478 297 q 660 319 605 304 q 762 355 715 334 z "},"ç":{"ha":1042,"x_min":40,"x_max":1012,"o":"m 762 355 q 913 348 841 392 q 988 254 968 314 q 972 132 1012 184 q 917 90 951 106 q 763 31 843 54 q 596 -2 683 8 q 424 3 509 -12 q 273 62 339 19 q 163 166 210 103 q 90 303 117 230 q 52 453 63 376 q 44 606 40 530 q 146 925 53 781 q 397 1130 240 1069 q 711 1140 559 1191 q 958 946 864 1089 q 967 806 1004 874 q 877 730 939 753 q 745 740 805 705 q 692 791 714 758 q 618 849 664 834 q 527 850 573 863 q 442 804 480 838 q 366 680 388 755 q 353 526 345 605 q 384 398 361 464 q 435 319 406 333 q 542 301 478 297 q 660 319 605 304 q 762 355 715 334 z "},"d":{"ha":1074,"x_min":40,"x_max":1029,"o":"m 721 1436 q 739 1508 722 1476 q 784 1557 757 1540 q 845 1581 812 1573 q 910 1581 878 1589 q 970 1557 943 1573 q 1013 1508 997 1540 q 1029 1436 1029 1476 q 1029 149 1018 734 q 1012 75 1029 107 q 966 25 995 42 q 904 2 937 8 q 836 5 870 -3 q 775 35 802 14 q 603 -2 686 7 q 430 3 519 -12 q 273 62 340 18 q 163 166 210 103 q 90 303 117 230 q 52 453 63 376 q 44 606 40 530 q 146 925 53 781 q 397 1131 240 1069 q 718 1138 559 1193 q 721 1436 718 1238 m 435 319 q 523 301 471 302 q 624 310 576 300 q 719 337 672 319 q 715 762 715 573 q 692 791 705 773 q 618 849 664 834 q 527 850 573 863 q 442 804 480 838 q 366 680 388 755 q 353 526 345 605 q 384 398 361 464 q 435 319 406 333 z "},"e":{"ha":1057,"x_min":36,"x_max":1017,"o":"m 1000 827 q 1010 711 1017 763 q 988 618 1003 659 q 940 545 974 577 q 869 490 905 513 q 782 450 833 466 q 684 423 732 433 q 580 408 636 413 q 475 400 524 402 q 376 400 427 399 q 400 353 387 373 q 408 341 404 347 q 411 334 411 335 q 415 330 412 333 q 420 326 418 327 q 430 319 421 325 q 448 312 437 315 q 472 308 458 309 q 495 306 487 307 q 521 306 503 306 q 541 307 539 307 q 758 355 654 307 q 908 348 836 392 q 984 254 963 314 q 968 132 1008 184 q 913 90 947 106 q 423 9 665 -26 q 230 84 303 26 q 110 254 157 141 q 50 476 64 361 q 54 703 36 592 q 133 914 72 814 q 293 1080 194 1013 q 457 1150 368 1130 q 632 1156 547 1170 q 793 1102 718 1142 q 924 991 869 1063 q 1000 827 979 919 m 372 708 q 591 718 494 705 q 611 721 592 718 q 648 726 631 724 q 684 733 665 728 q 708 741 702 737 q 704 743 706 740 q 700 753 701 747 q 696 765 698 759 q 693 777 694 772 q 691 785 692 783 q 630 846 670 829 q 549 855 591 863 q 467 823 507 846 q 404 766 427 799 q 372 708 388 745 z "},"è":{"ha":1057,"x_min":36,"x_max":1017,"o":"m 1000 827 q 1010 711 1017 763 q 988 618 1003 659 q 940 545 974 577 q 869 490 905 513 q 782 450 833 466 q 684 423 732 433 q 580 408 636 413 q 475 400 524 402 q 376 400 427 399 q 400 353 387 373 q 408 341 404 347 q 411 334 411 335 q 415 330 412 333 q 420 326 418 327 q 430 319 421 325 q 448 312 437 315 q 472 308 458 309 q 495 306 487 307 q 521 306 503 306 q 541 307 539 307 q 758 355 654 307 q 908 348 836 392 q 984 254 963 314 q 968 132 1008 184 q 913 90 947 106 q 423 9 665 -26 q 230 84 303 26 q 110 254 157 141 q 50 476 64 361 q 54 703 36 592 q 133 914 72 814 q 293 1080 194 1013 q 457 1150 368 1130 q 632 1156 547 1170 q 793 1102 718 1142 q 924 991 869 1063 q 1000 827 979 919 m 372 708 q 591 718 494 705 q 611 721 592 718 q 648 726 631 724 q 684 733 665 728 q 708 741 702 737 q 704 743 706 740 q 700 753 701 747 q 696 765 698 759 q 693 777 694 772 q 691 785 692 783 q 630 846 670 829 q 549 855 591 863 q 467 823 507 846 q 404 766 427 799 q 372 708 388 745 z "},"é":{"ha":1057,"x_min":36,"x_max":1017,"o":"m 1000 827 q 1010 711 1017 763 q 988 618 1003 659 q 940 545 974 577 q 869 490 905 513 q 782 450 833 466 q 684 423 732 433 q 580 408 636 413 q 475 400 524 402 q 376 400 427 399 q 400 353 387 373 q 408 341 404 347 q 411 334 411 335 q 415 330 412 333 q 420 326 418 327 q 430 319 421 325 q 448 312 437 315 q 472 308 458 309 q 495 306 487 307 q 521 306 503 306 q 541 307 539 307 q 758 355 654 307 q 908 348 836 392 q 984 254 963 314 q 968 132 1008 184 q 913 90 947 106 q 423 9 665 -26 q 230 84 303 26 q 110 254 157 141 q 50 476 64 361 q 54 703 36 592 q 133 914 72 814 q 293 1080 194 1013 q 457 1150 368 1130 q 632 1156 547 1170 q 793 1102 718 1142 q 924 991 869 1063 q 1000 827 979 919 m 372 708 q 591 718 494 705 q 611 721 592 718 q 648 726 631 724 q 684 733 665 728 q 708 741 702 737 q 704 743 706 740 q 700 753 701 747 q 696 765 698 759 q 693 777 694 772 q 691 785 692 783 q 630 846 670 829 q 549 855 591 863 q 467 823 507 846 q 404 766 427 799 q 372 708 388 745 z "},"ê":{"ha":1057,"x_min":36,"x_max":1017,"o":"m 1000 827 q 1010 711 1017 763 q 988 618 1003 659 q 940 545 974 577 q 869 490 905 513 q 782 450 833 466 q 684 423 732 433 q 580 408 636 413 q 475 400 524 402 q 376 400 427 399 q 400 353 387 373 q 408 341 404 347 q 411 334 411 335 q 415 330 412 333 q 420 326 418 327 q 430 319 421 325 q 448 312 437 315 q 472 308 458 309 q 495 306 487 307 q 521 306 503 306 q 541 307 539 307 q 758 355 654 307 q 908 348 836 392 q 984 254 963 314 q 968 132 1008 184 q 913 90 947 106 q 423 9 665 -26 q 230 84 303 26 q 110 254 157 141 q 50 476 64 361 q 54 703 36 592 q 133 914 72 814 q 293 1080 194 1013 q 457 1150 368 1130 q 632 1156 547 1170 q 793 1102 718 1142 q 924 991 869 1063 q 1000 827 979 919 m 372 708 q 591 718 494 705 q 611 721 592 718 q 648 726 631 724 q 684 733 665 728 q 708 741 702 737 q 704 743 706 740 q 700 753 701 747 q 696 765 698 759 q 693 777 694 772 q 691 785 692 783 q 630 846 670 829 q 549 855 591 863 q 467 823 507 846 q 404 766 427 799 q 372 708 388 745 z "},"ë":{"ha":1057,"x_min":36,"x_max":1017,"o":"m 1000 827 q 1010 711 1017 763 q 988 618 1003 659 q 940 545 974 577 q 869 490 905 513 q 782 450 833 466 q 684 423 732 433 q 580 408 636 413 q 475 400 524 402 q 376 400 427 399 q 400 353 387 373 q 408 341 404 347 q 411 334 411 335 q 415 330 412 333 q 420 326 418 327 q 430 319 421 325 q 448 312 437 315 q 472 308 458 309 q 495 306 487 307 q 521 306 503 306 q 541 307 539 307 q 758 355 654 307 q 908 348 836 392 q 984 254 963 314 q 968 132 1008 184 q 913 90 947 106 q 423 9 665 -26 q 230 84 303 26 q 110 254 157 141 q 50 476 64 361 q 54 703 36 592 q 133 914 72 814 q 293 1080 194 1013 q 457 1150 368 1130 q 632 1156 547 1170 q 793 1102 718 1142 q 924 991 869 1063 q 1000 827 979 919 m 372 708 q 591 718 494 705 q 611 721 592 718 q 648 726 631 724 q 684 733 665 728 q 708 741 702 737 q 704 743 706 740 q 700 753 701 747 q 696 765 698 759 q 693 777 694 772 q 691 785 692 783 q 630 846 670 829 q 549 855 591 863 q 467 823 507 846 q 404 766 427 799 q 372 708 388 745 z "},"f":{"ha":1010,"x_min":43,"x_max":1036,"o":"m 866 1156 q 998 1085 960 1160 q 998 931 1036 1010 q 866 848 959 852 q 353 848 621 838 q 357 197 357 469 l 476 197 q 583 152 540 197 q 630 43 627 106 q 585 -64 633 -18 q 476 -111 538 -111 l 356 -111 q 351 -557 353 -409 q 332 -629 350 -597 q 288 -678 315 -661 q 228 -702 260 -694 q 162 -702 195 -710 q 102 -678 129 -694 q 59 -629 75 -661 q 43 -557 43 -597 q 43 1012 56 168 q 65 1095 43 1059 q 116 1148 83 1129 q 195 1164 149 1166 q 866 1156 559 1141 z "},"g":{"ha":1094,"x_min":9,"x_max":1049,"o":"m 1038 1014 l 1044 141 q 1046 52 1044 109 q 1048 -42 1048 -5 q 1048 -135 1049 -80 q 1043 -230 1047 -189 q 1028 -319 1038 -270 q 1002 -407 1018 -368 q 961 -486 986 -446 q 903 -559 936 -526 q 724 -672 828 -633 q 511 -709 620 -711 q 303 -669 401 -708 q 47 -119 9 -553 q 123 5 55 -36 q 250 25 182 39 q 342 -44 317 11 q 355 -119 358 -77 q 350 -181 351 -157 q 350 -239 349 -206 q 357 -294 351 -273 q 374 -338 362 -315 q 406 -374 387 -361 q 454 -394 425 -387 q 522 -401 484 -402 q 739 -147 734 -396 q 741 29 739 -146 q 579 0 657 7 q 419 9 500 -6 q 274 66 337 25 q 138 212 192 119 q 62 404 83 304 q 47 606 41 503 q 95 822 53 719 q 215 1006 136 924 q 398 1128 294 1088 q 589 1160 495 1164 q 766 1114 682 1156 q 843 1157 796 1146 q 932 1156 889 1167 q 1006 1107 975 1145 q 1038 1014 1038 1069 m 435 323 q 532 305 475 304 q 641 318 589 305 q 739 350 692 330 q 734 743 738 483 q 690 789 709 760 q 617 846 662 831 q 527 847 572 860 q 444 802 481 835 q 368 679 390 753 q 355 526 347 604 q 385 401 362 466 q 435 323 408 336 z "},"h":{"ha":1010,"x_min":43,"x_max":968,"o":"m 355 1126 q 514 1157 432 1156 q 671 1131 597 1158 q 809 1045 746 1104 q 907 903 871 986 q 955 720 941 825 q 967 537 968 615 q 958 332 965 458 q 950 151 951 205 q 932 78 949 110 q 887 30 915 46 q 827 5 860 13 q 761 5 794 -3 q 702 30 728 13 q 658 78 675 46 q 642 151 642 110 q 646 341 643 186 q 649 580 648 496 q 650 616 649 584 q 650 659 650 648 q 648 698 650 670 q 642 741 646 726 q 630 775 638 755 q 610 810 622 795 q 550 851 585 842 q 480 848 514 860 q 418 810 446 837 q 356 772 390 783 q 351 149 356 426 q 332 77 350 109 q 288 28 315 45 q 228 4 260 12 q 162 4 195 -4 q 102 28 129 12 q 59 77 75 45 q 43 149 43 109 q 43 1436 54 734 q 59 1508 43 1476 q 102 1557 75 1540 q 162 1581 130 1573 q 228 1581 195 1589 q 288 1557 260 1573 q 333 1508 315 1540 q 351 1436 350 1476 q 355 1126 355 1127 z "},"i":{"ha":399,"x_min":43,"x_max":354,"o":"m 45 1010 q 62 1082 45 1050 q 106 1131 79 1114 q 166 1155 133 1147 q 231 1155 199 1163 q 291 1131 264 1147 q 336 1082 319 1114 q 353 1010 353 1050 q 351 149 354 364 q 332 77 350 109 q 288 28 315 45 q 228 4 260 12 q 162 4 195 -4 q 102 28 129 12 q 59 77 75 45 q 43 149 43 109 q 45 1010 47 364 z "},"ì":{"ha":399,"x_min":43,"x_max":354,"o":"m 45 1010 q 62 1082 45 1050 q 106 1131 79 1114 q 166 1155 133 1147 q 231 1155 199 1163 q 291 1131 264 1147 q 336 1082 319 1114 q 353 1010 353 1050 q 351 149 354 364 q 332 77 350 109 q 288 28 315 45 q 228 4 260 12 q 162 4 195 -4 q 102 28 129 12 q 59 77 75 45 q 43 149 43 109 q 45 1010 47 364 z "},"í":{"ha":399,"x_min":43,"x_max":354,"o":"m 45 1010 q 62 1082 45 1050 q 106 1131 79 1114 q 166 1155 133 1147 q 231 1155 199 1163 q 291 1131 264 1147 q 336 1082 319 1114 q 353 1010 353 1050 q 351 149 354 364 q 332 77 350 109 q 288 28 315 45 q 228 4 260 12 q 162 4 195 -4 q 102 28 129 12 q 59 77 75 45 q 43 149 43 109 q 45 1010 47 364 z "},"î":{"ha":399,"x_min":43,"x_max":354,"o":"m 45 1010 q 62 1082 45 1050 q 106 1131 79 1114 q 166 1155 133 1147 q 231 1155 199 1163 q 291 1131 264 1147 q 336 1082 319 1114 q 353 1010 353 1050 q 351 149 354 364 q 332 77 350 109 q 288 28 315 45 q 228 4 260 12 q 162 4 195 -4 q 102 28 129 12 q 59 77 75 45 q 43 149 43 109 q 45 1010 47 364 z "},"ï":{"ha":399,"x_min":43,"x_max":354,"o":"m 45 1010 q 62 1082 45 1050 q 106 1131 79 1114 q 166 1155 133 1147 q 231 1155 199 1163 q 291 1131 264 1147 q 336 1082 319 1114 q 353 1010 353 1050 q 351 149 354 364 q 332 77 350 109 q 288 28 315 45 q 228 4 260 12 q 162 4 195 -4 q 102 28 129 12 q 59 77 75 45 q 43 149 43 109 q 45 1010 47 364 z "},"j":{"ha":391,"x_min":-694,"x_max":347,"o":"m 336 1014 l 342 141 q 343 52 342 109 q 346 -42 345 -5 q 345 -135 347 -80 q 339 -230 344 -190 q 325 -319 335 -269 q 299 -407 315 -368 q 258 -486 283 -446 q 199 -559 233 -526 q 21 -672 125 -633 q -193 -709 -83 -711 q -400 -669 -302 -708 q -656 -119 -694 -553 q -580 5 -648 -36 q -454 25 -521 39 q -360 -43 -387 12 q -348 -119 -345 -77 q -352 -168 -351 -148 q -354 -214 -353 -187 q -352 -259 -354 -241 q -345 -298 -350 -277 q -331 -334 -340 -320 q -310 -363 -323 -349 q -278 -385 -296 -377 q -236 -397 -260 -393 q -181 -401 -212 -402 q 36 -147 31 -396 q 38 240 39 114 q 33 627 37 366 q 28 1014 29 888 q 45 1086 28 1055 q 89 1135 62 1118 q 148 1159 115 1152 q 214 1159 181 1167 q 274 1135 247 1152 q 318 1086 301 1118 q 336 1014 336 1055 z "},"k":{"ha":937,"x_min":43,"x_max":941,"o":"m 713 1136 q 784 1159 748 1157 q 848 1145 820 1160 q 899 1106 876 1131 q 931 1049 922 1082 q 941 985 941 1017 q 922 922 941 954 q 868 870 903 891 q 621 706 744 796 q 736 506 703 593 q 769 408 753 460 q 805 289 785 356 q 833 189 824 221 q 830 90 850 135 q 770 23 811 44 q 683 -1 729 3 q 595 24 637 -4 q 537 107 553 53 q 511 197 528 138 q 481 305 495 257 q 450 393 467 353 q 385 511 429 448 q 370 497 380 507 q 355 484 360 488 q 351 149 353 315 q 332 77 350 109 q 288 28 315 45 q 228 4 260 12 q 162 4 195 -4 q 102 28 129 12 q 59 77 75 45 q 43 149 43 109 q 43 1436 54 734 q 59 1508 43 1476 q 102 1557 75 1540 q 162 1581 130 1573 q 228 1581 195 1589 q 288 1557 260 1573 q 333 1508 315 1540 q 351 1436 350 1476 q 355 889 354 1194 q 713 1136 524 1023 z "},"l":{"ha":401,"x_min":43,"x_max":361,"o":"m 43 1436 q 59 1508 43 1476 q 103 1557 76 1540 q 162 1581 130 1573 q 228 1581 195 1589 q 288 1557 260 1573 q 333 1508 315 1540 q 351 1436 350 1476 q 351 149 361 734 q 332 77 350 109 q 288 28 315 45 q 228 4 260 12 q 162 4 195 -4 q 102 28 129 12 q 59 77 75 45 q 43 149 43 109 q 43 1436 54 734 z "},"m":{"ha":1715,"x_min":41,"x_max":1670,"o":"m 954 1056 q 1111 1134 1025 1111 q 1282 1148 1198 1158 q 1447 1090 1367 1139 q 1579 958 1526 1042 q 1633 838 1612 905 q 1661 707 1653 771 q 1669 564 1668 644 q 1666 421 1670 484 q 1657 279 1662 359 q 1652 149 1653 198 q 1634 77 1651 109 q 1589 28 1617 45 q 1529 4 1562 12 q 1463 4 1496 -4 q 1404 28 1431 12 q 1361 77 1377 45 q 1345 149 1344 109 q 1349 345 1345 171 q 1352 610 1352 519 q 1351 646 1352 638 q 1350 681 1351 653 q 1345 720 1348 708 q 1337 753 1343 731 q 1323 788 1331 776 q 1302 813 1315 800 q 1272 836 1289 827 q 1204 847 1236 854 q 1147 821 1171 840 q 1103 768 1123 801 q 1123 573 1121 678 q 1119 329 1126 468 q 1111 149 1112 191 q 1093 77 1110 109 q 1048 28 1076 45 q 988 4 1021 12 q 922 4 955 -4 q 862 28 889 12 q 819 77 836 45 q 803 149 802 109 q 809 502 803 151 q 812 563 809 515 q 814 638 814 610 q 809 707 813 667 q 790 776 804 747 q 751 823 776 805 q 683 852 716 850 q 625 836 650 854 q 581 788 601 818 q 549 725 561 758 q 533 661 538 692 q 518 504 522 585 q 512 307 513 423 q 509 150 511 191 q 485 68 508 102 q 428 18 461 33 q 355 2 394 2 q 282 18 315 2 q 225 68 248 33 q 201 150 203 102 q 198 281 200 197 q 195 435 197 366 q 191 566 193 504 q 191 612 191 572 q 189 671 190 653 q 183 727 188 689 q 172 786 179 764 q 151 832 165 808 q 119 871 138 857 q 65 930 85 897 q 43 1003 45 964 q 64 1081 41 1042 q 159 1152 95 1133 q 275 1136 223 1171 q 377 1030 333 1091 q 569 1140 459 1109 q 789 1141 679 1171 q 954 1056 885 1114 z "},"n":{"ha":1129,"x_min":2,"x_max":1085,"o":"m 751 1141 q 863 1093 812 1124 q 947 1025 913 1063 q 1007 938 982 988 q 1048 838 1033 888 q 1072 726 1063 788 q 1083 609 1080 663 q 1084 488 1085 555 q 1081 369 1084 420 q 1076 254 1078 318 q 1072 149 1073 190 q 1054 77 1072 109 q 1009 28 1037 45 q 949 4 982 12 q 883 4 916 -4 q 824 28 850 12 q 780 77 797 45 q 764 149 764 109 q 770 502 766 269 q 772 553 770 517 q 774 612 774 588 q 773 672 775 637 q 766 732 772 707 q 746 783 760 758 q 713 823 733 808 q 644 852 677 850 q 587 836 611 854 q 542 788 562 818 q 511 725 522 758 q 494 661 499 692 q 479 504 484 585 q 473 307 475 423 q 471 150 472 191 q 446 68 469 102 q 389 18 422 33 q 316 2 355 2 q 243 18 277 2 q 187 68 210 33 q 163 150 164 102 q 160 281 161 197 q 156 435 158 366 q 153 566 155 504 q 152 612 153 572 q 150 671 151 653 q 145 727 149 689 q 133 786 140 764 q 113 832 126 808 q 81 871 99 857 q 27 930 47 897 q 4 1003 7 964 q 26 1081 2 1042 q 120 1152 56 1133 q 236 1136 184 1171 q 338 1030 294 1091 q 530 1140 420 1109 q 751 1141 640 1171 z "},"ñ":{"ha":1129,"x_min":2,"x_max":1085,"o":"m 751 1141 q 863 1093 812 1124 q 947 1025 913 1063 q 1007 938 982 988 q 1048 838 1033 888 q 1072 726 1063 788 q 1083 609 1080 663 q 1084 488 1085 555 q 1081 369 1084 420 q 1076 254 1078 318 q 1072 149 1073 190 q 1054 77 1072 109 q 1009 28 1037 45 q 949 4 982 12 q 883 4 916 -4 q 824 28 850 12 q 780 77 797 45 q 764 149 764 109 q 770 502 766 269 q 772 553 770 517 q 774 612 774 588 q 773 672 775 637 q 766 732 772 707 q 746 783 760 758 q 713 823 733 808 q 644 852 677 850 q 587 836 611 854 q 542 788 562 818 q 511 725 522 758 q 494 661 499 692 q 479 504 484 585 q 473 307 475 423 q 471 150 472 191 q 446 68 469 102 q 389 18 422 33 q 316 2 355 2 q 243 18 277 2 q 187 68 210 33 q 163 150 164 102 q 160 281 161 197 q 156 435 158 366 q 153 566 155 504 q 152 612 153 572 q 150 671 151 653 q 145 727 149 689 q 133 786 140 764 q 113 832 126 808 q 81 871 99 857 q 27 930 47 897 q 4 1003 7 964 q 26 1081 2 1042 q 120 1152 56 1133 q 236 1136 184 1171 q 338 1030 294 1091 q 530 1140 420 1109 q 751 1141 640 1171 z "},"o":{"ha":1104,"x_min":41,"x_max":1066,"o":"m 568 1157 q 792 1108 694 1146 q 958 989 890 1071 q 1047 797 1027 905 q 1053 557 1066 688 q 1011 334 1040 431 q 918 164 983 238 q 539 4 800 29 q 315 25 418 -7 q 149 146 213 58 q 43 559 50 284 q 62 738 41 648 q 129 908 83 828 q 236 1048 174 988 q 384 1138 298 1107 q 568 1157 471 1168 m 746 557 q 748 577 746 558 q 751 599 751 595 q 753 621 751 603 q 755 645 755 639 q 755 667 755 651 q 755 691 756 683 q 753 713 754 699 q 749 735 751 726 q 742 755 746 745 q 734 774 739 766 q 669 829 712 813 q 568 850 627 844 q 481 840 519 855 q 418 796 442 825 q 377 727 393 767 q 355 645 361 687 q 351 559 349 604 q 364 400 353 448 q 387 345 373 366 q 411 321 396 330 q 437 309 425 312 q 472 306 449 305 q 504 308 494 307 q 538 312 513 309 q 633 338 595 319 q 694 389 671 356 q 728 460 717 421 q 746 557 739 498 z "},"ò":{"ha":1104,"x_min":41,"x_max":1066,"o":"m 568 1157 q 792 1108 694 1146 q 958 989 890 1071 q 1047 797 1027 905 q 1053 557 1066 688 q 1011 334 1040 431 q 918 164 983 238 q 539 4 800 29 q 315 25 418 -7 q 149 146 213 58 q 43 559 50 284 q 62 738 41 648 q 129 908 83 828 q 236 1048 174 988 q 384 1138 298 1107 q 568 1157 471 1168 m 746 557 q 748 577 746 558 q 751 599 751 595 q 753 621 751 603 q 755 645 755 639 q 755 667 755 651 q 755 691 756 683 q 753 713 754 699 q 749 735 751 726 q 742 755 746 745 q 734 774 739 766 q 669 829 712 813 q 568 850 627 844 q 481 840 519 855 q 418 796 442 825 q 377 727 393 767 q 355 645 361 687 q 351 559 349 604 q 364 400 353 448 q 387 345 373 366 q 411 321 396 330 q 437 309 425 312 q 472 306 449 305 q 504 308 494 307 q 538 312 513 309 q 633 338 595 319 q 694 389 671 356 q 728 460 717 421 q 746 557 739 498 z "},"ó":{"ha":1104,"x_min":41,"x_max":1066,"o":"m 568 1157 q 792 1108 694 1146 q 958 989 890 1071 q 1047 797 1027 905 q 1053 557 1066 688 q 1011 334 1040 431 q 918 164 983 238 q 539 4 800 29 q 315 25 418 -7 q 149 146 213 58 q 43 559 50 284 q 62 738 41 648 q 129 908 83 828 q 236 1048 174 988 q 384 1138 298 1107 q 568 1157 471 1168 m 746 557 q 748 577 746 558 q 751 599 751 595 q 753 621 751 603 q 755 645 755 639 q 755 667 755 651 q 755 691 756 683 q 753 713 754 699 q 749 735 751 726 q 742 755 746 745 q 734 774 739 766 q 669 829 712 813 q 568 850 627 844 q 481 840 519 855 q 418 796 442 825 q 377 727 393 767 q 355 645 361 687 q 351 559 349 604 q 364 400 353 448 q 387 345 373 366 q 411 321 396 330 q 437 309 425 312 q 472 306 449 305 q 504 308 494 307 q 538 312 513 309 q 633 338 595 319 q 694 389 671 356 q 728 460 717 421 q 746 557 739 498 z "},"ô":{"ha":1104,"x_min":41,"x_max":1066,"o":"m 568 1157 q 792 1108 694 1146 q 958 989 890 1071 q 1047 797 1027 905 q 1053 557 1066 688 q 1011 334 1040 431 q 918 164 983 238 q 539 4 800 29 q 315 25 418 -7 q 149 146 213 58 q 43 559 50 284 q 62 738 41 648 q 129 908 83 828 q 236 1048 174 988 q 384 1138 298 1107 q 568 1157 471 1168 m 746 557 q 748 577 746 558 q 751 599 751 595 q 753 621 751 603 q 755 645 755 639 q 755 667 755 651 q 755 691 756 683 q 753 713 754 699 q 749 735 751 726 q 742 755 746 745 q 734 774 739 766 q 669 829 712 813 q 568 850 627 844 q 481 840 519 855 q 418 796 442 825 q 377 727 393 767 q 355 645 361 687 q 351 559 349 604 q 364 400 353 448 q 387 345 373 366 q 411 321 396 330 q 437 309 425 312 q 472 306 449 305 q 504 308 494 307 q 538 312 513 309 q 633 338 595 319 q 694 389 671 356 q 728 460 717 421 q 746 557 739 498 z "},"õ":{"ha":1104,"x_min":41,"x_max":1066,"o":"m 568 1157 q 792 1108 694 1146 q 958 989 890 1071 q 1047 797 1027 905 q 1053 557 1066 688 q 1011 334 1040 431 q 918 164 983 238 q 539 4 800 29 q 315 25 418 -7 q 149 146 213 58 q 43 559 50 284 q 62 738 41 648 q 129 908 83 828 q 236 1048 174 988 q 384 1138 298 1107 q 568 1157 471 1168 m 746 557 q 748 577 746 558 q 751 599 751 595 q 753 621 751 603 q 755 645 755 639 q 755 667 755 651 q 755 691 756 683 q 753 713 754 699 q 749 735 751 726 q 742 755 746 745 q 734 774 739 766 q 669 829 712 813 q 568 850 627 844 q 481 840 519 855 q 418 796 442 825 q 377 727 393 767 q 355 645 361 687 q 351 559 349 604 q 364 400 353 448 q 387 345 373 366 q 411 321 396 330 q 437 309 425 312 q 472 306 449 305 q 504 308 494 307 q 538 312 513 309 q 633 338 595 319 q 694 389 671 356 q 728 460 717 421 q 746 557 739 498 z "},"ö":{"ha":1104,"x_min":41,"x_max":1066,"o":"m 568 1157 q 792 1108 694 1146 q 958 989 890 1071 q 1047 797 1027 905 q 1053 557 1066 688 q 1011 334 1040 431 q 918 164 983 238 q 539 4 800 29 q 315 25 418 -7 q 149 146 213 58 q 43 559 50 284 q 62 738 41 648 q 129 908 83 828 q 236 1048 174 988 q 384 1138 298 1107 q 568 1157 471 1168 m 746 557 q 748 577 746 558 q 751 599 751 595 q 753 621 751 603 q 755 645 755 639 q 755 667 755 651 q 755 691 756 683 q 753 713 754 699 q 749 735 751 726 q 742 755 746 745 q 734 774 739 766 q 669 829 712 813 q 568 850 627 844 q 481 840 519 855 q 418 796 442 825 q 377 727 393 767 q 355 645 361 687 q 351 559 349 604 q 364 400 353 448 q 387 345 373 366 q 411 321 396 330 q 437 309 425 312 q 472 306 449 305 q 504 308 494 307 q 538 312 513 309 q 633 338 595 319 q 694 389 671 356 q 728 460 717 421 q 746 557 739 498 z "},"ø":{"ha":1104,"x_min":41,"x_max":1066,"o":"m 568 1157 q 792 1108 694 1146 q 958 989 890 1071 q 1047 797 1027 905 q 1053 557 1066 688 q 1011 334 1040 431 q 918 164 983 238 q 539 4 800 29 q 315 25 418 -7 q 149 146 213 58 q 43 559 50 284 q 62 738 41 648 q 129 908 83 828 q 236 1048 174 988 q 384 1138 298 1107 q 568 1157 471 1168 m 746 557 q 748 577 746 558 q 751 599 751 595 q 753 621 751 603 q 755 645 755 639 q 755 667 755 651 q 755 691 756 683 q 753 713 754 699 q 749 735 751 726 q 742 755 746 745 q 734 774 739 766 q 669 829 712 813 q 568 850 627 844 q 481 840 519 855 q 418 796 442 825 q 377 727 393 767 q 355 645 361 687 q 351 559 349 604 q 364 400 353 448 q 387 345 373 366 q 411 321 396 330 q 437 309 425 312 q 472 306 449 305 q 504 308 494 307 q 538 312 513 309 q 633 338 595 319 q 694 389 671 356 q 728 460 717 421 q 746 557 739 498 z "},"p":{"ha":976,"x_min":37,"x_max":970,"o":"m 287 1140 q 550 1132 418 1175 q 772 980 681 1088 q 921 313 970 744 q 795 73 903 157 q 531 0 688 -12 q 351 42 437 7 q 357 -557 353 -258 q 327 -652 358 -614 q 251 -700 296 -691 q 161 -700 206 -709 q 83 -652 115 -690 q 50 -557 50 -613 q 50 1013 37 168 q 75 1097 50 1061 q 135 1146 99 1132 q 212 1160 171 1161 q 287 1140 253 1159 m 621 396 q 621 468 623 427 q 612 561 619 510 q 592 660 605 612 q 558 751 578 707 q 509 821 538 794 q 442 856 480 847 q 355 842 404 864 q 351 412 353 627 q 526 309 418 326 q 555 305 543 306 q 577 305 568 304 q 593 308 587 307 q 605 316 600 309 q 612 328 610 323 q 616 346 614 332 q 619 368 618 359 q 621 396 620 376 z "},"q":{"ha":976,"x_min":2,"x_max":937,"o":"m 687 1140 q 762 1160 721 1159 q 839 1146 803 1161 q 899 1096 875 1131 q 924 1012 924 1061 q 924 -557 937 168 q 906 -629 924 -597 q 861 -678 888 -661 q 801 -702 834 -694 q 735 -702 768 -710 q 676 -678 703 -694 q 633 -629 649 -661 q 617 -557 616 -597 q 623 41 621 -308 q 431 -1 532 4 q 174 76 277 -8 q 53 313 71 160 q 213 993 2 757 q 432 1134 304 1095 q 687 1140 559 1173 m 453 310 q 623 412 559 329 q 619 842 621 699 q 532 856 570 864 q 466 821 494 847 q 416 751 437 794 q 383 660 396 707 q 362 561 370 612 q 353 468 355 510 q 353 396 351 427 q 354 370 353 383 q 354 345 354 356 q 358 323 355 333 q 370 310 362 314 q 453 310 392 298 z "},"r":{"ha":880,"x_min":43,"x_max":901,"o":"m 827 1094 q 882 1042 863 1073 q 901 979 901 1011 q 891 915 901 947 q 859 859 882 883 q 807 819 836 834 q 743 806 779 804 q 672 829 707 808 q 602 853 637 850 q 537 843 567 857 q 479 809 507 830 q 429 756 452 787 q 387 695 405 725 q 353 633 369 666 q 352 378 352 543 q 351 149 351 213 q 333 76 351 108 q 289 27 316 44 q 228 3 261 11 q 163 3 195 -5 q 103 27 130 11 q 59 76 76 44 q 43 149 43 108 q 44 358 43 213 q 45 587 44 504 q 48 790 45 669 q 56 1013 51 911 q 77 1085 58 1053 q 123 1134 96 1116 q 185 1157 151 1151 q 250 1158 218 1164 q 309 1133 282 1152 q 351 1085 336 1114 q 499 1148 423 1130 q 661 1154 576 1166 q 827 1094 747 1142 z "},"s":{"ha":981,"x_min":39,"x_max":937,"o":"m 604 791 q 510 814 580 822 q 418 782 450 808 q 412 736 391 759 q 480 708 431 717 q 587 694 529 699 q 666 682 644 690 q 883 521 814 633 q 930 346 933 433 q 877 181 927 258 q 742 59 827 104 q 559 6 666 18 q 355 6 452 -5 q 168 43 258 17 q 72 110 105 62 q 43 211 39 157 q 71 311 47 264 q 147 381 94 359 q 262 386 199 404 q 427 361 340 363 q 445 361 438 361 q 393 374 413 370 q 257 420 321 389 q 146 499 194 452 q 71 612 98 547 q 45 754 43 678 q 76 905 47 836 q 152 1022 105 975 q 261 1103 199 1070 q 393 1149 324 1136 q 535 1158 462 1162 q 676 1133 608 1154 q 805 1069 743 1111 q 910 970 867 1027 q 936 883 937 929 q 909 792 935 836 q 846 727 884 749 q 756 704 801 701 q 672 729 711 706 q 604 791 633 751 z "},"t":{"ha":675,"x_min":-640,"x_max":1219,"o":"m 932 1480 q 1101 1476 1020 1522 q 1189 1375 1162 1442 q 1184 1238 1219 1300 q 1112 1173 1161 1197 q 378 1051 741 992 q 376 850 377 984 q 376 650 376 716 q 377 393 376 436 q 379 374 377 389 q 380 352 380 358 q 391 321 387 335 q 399 307 393 309 q 491 340 441 340 q 579 315 541 341 q 640 251 616 288 q 657 167 664 214 q 608 83 650 120 q 388 1 511 -3 q 174 101 264 5 q 69 404 75 205 q 70 1116 63 625 q -88 1139 -18 1133 q -242 1135 -159 1144 q -401 1096 -326 1126 q -493 1094 -448 1080 q -573 1142 -538 1107 q -620 1220 -608 1177 q -603 1351 -640 1291 q -496 1438 -566 1411 q 78 1480 -257 1532 q 115 1542 88 1516 q 175 1577 142 1567 q 244 1583 208 1587 q 311 1562 281 1579 q 360 1512 341 1546 q 380 1436 380 1479 l 380 1412 q 577 1385 495 1385 q 932 1480 741 1385 m 399 307 m 397 305 q 391 300 396 304 q 397 305 393 302 z "},"u":{"ha":1129,"x_min":43,"x_max":1126,"o":"m 1047 289 q 1101 230 1081 263 q 1123 157 1121 196 q 1102 79 1126 118 q 1007 8 1072 27 q 892 24 943 -12 q 789 130 833 68 q 597 19 707 50 q 377 19 488 -12 q 265 66 315 36 q 180 134 215 97 q 120 222 146 172 q 80 322 95 272 q 56 434 65 372 q 45 551 47 496 q 43 672 43 605 q 47 790 44 739 q 52 906 50 842 q 56 1010 55 970 q 74 1083 56 1051 q 118 1132 91 1115 q 179 1156 146 1148 q 244 1156 212 1164 q 304 1132 277 1148 q 348 1083 331 1115 q 363 1010 364 1051 q 357 658 363 1008 q 355 597 357 644 q 353 522 352 550 q 358 453 353 493 q 376 384 362 413 q 415 336 391 355 q 484 308 450 309 q 541 324 517 306 q 586 372 566 342 q 617 434 606 401 q 633 499 629 467 q 649 655 644 574 q 654 852 653 736 q 657 1010 656 968 q 682 1092 659 1057 q 739 1142 705 1126 q 812 1158 772 1158 q 885 1142 851 1158 q 941 1092 918 1126 q 965 1010 964 1057 q 968 879 966 963 q 971 725 970 794 q 975 594 973 656 q 976 547 975 588 q 978 489 977 507 q 983 433 979 471 q 995 374 987 395 q 1015 328 1002 352 q 1047 289 1029 303 z "},"ù":{"ha":1129,"x_min":43,"x_max":1126,"o":"m 1047 289 q 1101 230 1081 263 q 1123 157 1121 196 q 1102 79 1126 118 q 1007 8 1072 27 q 892 24 943 -12 q 789 130 833 68 q 597 19 707 50 q 377 19 488 -12 q 265 66 315 36 q 180 134 215 97 q 120 222 146 172 q 80 322 95 272 q 56 434 65 372 q 45 551 47 496 q 43 672 43 605 q 47 790 44 739 q 52 906 50 842 q 56 1010 55 970 q 74 1083 56 1051 q 118 1132 91 1115 q 179 1156 146 1148 q 244 1156 212 1164 q 304 1132 277 1148 q 348 1083 331 1115 q 363 1010 364 1051 q 357 658 363 1008 q 355 597 357 644 q 353 522 352 550 q 358 453 353 493 q 376 384 362 413 q 415 336 391 355 q 484 308 450 309 q 541 324 517 306 q 586 372 566 342 q 617 434 606 401 q 633 499 629 467 q 649 655 644 574 q 654 852 653 736 q 657 1010 656 968 q 682 1092 659 1057 q 739 1142 705 1126 q 812 1158 772 1158 q 885 1142 851 1158 q 941 1092 918 1126 q 965 1010 964 1057 q 968 879 966 963 q 971 725 970 794 q 975 594 973 656 q 976 547 975 588 q 978 489 977 507 q 983 433 979 471 q 995 374 987 395 q 1015 328 1002 352 q 1047 289 1029 303 z "},"ú":{"ha":1129,"x_min":43,"x_max":1126,"o":"m 1047 289 q 1101 230 1081 263 q 1123 157 1121 196 q 1102 79 1126 118 q 1007 8 1072 27 q 892 24 943 -12 q 789 130 833 68 q 597 19 707 50 q 377 19 488 -12 q 265 66 315 36 q 180 134 215 97 q 120 222 146 172 q 80 322 95 272 q 56 434 65 372 q 45 551 47 496 q 43 672 43 605 q 47 790 44 739 q 52 906 50 842 q 56 1010 55 970 q 74 1083 56 1051 q 118 1132 91 1115 q 179 1156 146 1148 q 244 1156 212 1164 q 304 1132 277 1148 q 348 1083 331 1115 q 363 1010 364 1051 q 357 658 363 1008 q 355 597 357 644 q 353 522 352 550 q 358 453 353 493 q 376 384 362 413 q 415 336 391 355 q 484 308 450 309 q 541 324 517 306 q 586 372 566 342 q 617 434 606 401 q 633 499 629 467 q 649 655 644 574 q 654 852 653 736 q 657 1010 656 968 q 682 1092 659 1057 q 739 1142 705 1126 q 812 1158 772 1158 q 885 1142 851 1158 q 941 1092 918 1126 q 965 1010 964 1057 q 968 879 966 963 q 971 725 970 794 q 975 594 973 656 q 976 547 975 588 q 978 489 977 507 q 983 433 979 471 q 995 374 987 395 q 1015 328 1002 352 q 1047 289 1029 303 z "},"û":{"ha":1129,"x_min":43,"x_max":1126,"o":"m 1047 289 q 1101 230 1081 263 q 1123 157 1121 196 q 1102 79 1126 118 q 1007 8 1072 27 q 892 24 943 -12 q 789 130 833 68 q 597 19 707 50 q 377 19 488 -12 q 265 66 315 36 q 180 134 215 97 q 120 222 146 172 q 80 322 95 272 q 56 434 65 372 q 45 551 47 496 q 43 672 43 605 q 47 790 44 739 q 52 906 50 842 q 56 1010 55 970 q 74 1083 56 1051 q 118 1132 91 1115 q 179 1156 146 1148 q 244 1156 212 1164 q 304 1132 277 1148 q 348 1083 331 1115 q 363 1010 364 1051 q 357 658 363 1008 q 355 597 357 644 q 353 522 352 550 q 358 453 353 493 q 376 384 362 413 q 415 336 391 355 q 484 308 450 309 q 541 324 517 306 q 586 372 566 342 q 617 434 606 401 q 633 499 629 467 q 649 655 644 574 q 654 852 653 736 q 657 1010 656 968 q 682 1092 659 1057 q 739 1142 705 1126 q 812 1158 772 1158 q 885 1142 851 1158 q 941 1092 918 1126 q 965 1010 964 1057 q 968 879 966 963 q 971 725 970 794 q 975 594 973 656 q 976 547 975 588 q 978 489 977 507 q 983 433 979 471 q 995 374 987 395 q 1015 328 1002 352 q 1047 289 1029 303 z "},"ü":{"ha":1129,"x_min":43,"x_max":1126,"o":"m 1047 289 q 1101 230 1081 263 q 1123 157 1121 196 q 1102 79 1126 118 q 1007 8 1072 27 q 892 24 943 -12 q 789 130 833 68 q 597 19 707 50 q 377 19 488 -12 q 265 66 315 36 q 180 134 215 97 q 120 222 146 172 q 80 322 95 272 q 56 434 65 372 q 45 551 47 496 q 43 672 43 605 q 47 790 44 739 q 52 906 50 842 q 56 1010 55 970 q 74 1083 56 1051 q 118 1132 91 1115 q 179 1156 146 1148 q 244 1156 212 1164 q 304 1132 277 1148 q 348 1083 331 1115 q 363 1010 364 1051 q 357 658 363 1008 q 355 597 357 644 q 353 522 352 550 q 358 453 353 493 q 376 384 362 413 q 415 336 391 355 q 484 308 450 309 q 541 324 517 306 q 586 372 566 342 q 617 434 606 401 q 633 499 629 467 q 649 655 644 574 q 654 852 653 736 q 657 1010 656 968 q 682 1092 659 1057 q 739 1142 705 1126 q 812 1158 772 1158 q 885 1142 851 1158 q 941 1092 918 1126 q 965 1010 964 1057 q 968 879 966 963 q 971 725 970 794 q 975 594 973 656 q 976 547 975 588 q 978 489 977 507 q 983 433 979 471 q 995 374 987 395 q 1015 328 1002 352 q 1047 289 1029 303 z "},"v":{"ha":1030,"x_min":42,"x_max":1019,"o":"m 705 1013 q 790 1144 711 1105 q 944 1144 870 1182 q 1013 1013 1019 1105 q 862 357 988 660 q 830 284 844 315 q 794 214 816 253 q 753 148 773 175 q 705 91 733 120 q 646 44 676 62 q 577 15 616 26 q 494 1 538 3 q 359 20 421 -2 q 253 83 298 42 q 173 182 208 124 q 114 307 137 241 q 76 448 92 372 q 53 597 60 524 q 44 744 46 669 q 44 880 42 819 q 52 996 47 941 q 142 1127 61 1088 q 295 1127 222 1165 q 359 996 368 1089 q 374 570 337 760 q 379 540 375 564 q 387 494 383 515 q 398 442 391 472 q 414 389 406 412 q 433 345 422 366 q 457 315 444 324 q 487 309 471 305 q 518 332 503 312 q 547 377 534 352 q 573 438 559 402 q 595 500 587 475 q 613 558 603 526 q 625 597 623 591 q 705 1013 689 798 z "},"w":{"ha":1768,"x_min":42,"x_max":1752,"o":"m 1674 289 q 1728 230 1708 263 q 1750 157 1748 196 q 1729 79 1752 118 q 1634 8 1698 27 q 1518 24 1570 -12 q 1416 130 1460 68 q 1224 19 1334 50 q 1004 19 1114 -12 q 826 116 899 48 q 668 39 749 66 q 504 6 587 11 q 338 32 420 1 q 190 130 256 63 q 116 230 146 174 q 71 351 86 287 q 49 479 56 415 q 43 618 42 543 q 47 753 44 693 q 55 888 50 813 q 60 1010 59 964 q 78 1083 60 1051 q 122 1132 95 1115 q 183 1156 150 1148 q 249 1156 216 1164 q 308 1132 281 1148 q 352 1083 335 1115 q 368 1010 368 1051 q 365 864 367 962 q 363 718 363 766 q 359 631 363 701 q 358 518 356 562 q 369 433 359 473 q 408 351 381 380 q 467 315 435 321 q 540 319 500 309 q 616 348 580 328 q 689 395 653 368 q 670 589 672 485 q 675 831 668 694 q 682 1010 682 969 q 700 1083 683 1051 q 745 1132 718 1115 q 805 1156 772 1148 q 871 1156 838 1164 q 931 1132 904 1148 q 974 1083 958 1115 q 990 1010 991 1051 q 984 658 990 1008 q 981 597 984 644 q 979 522 979 550 q 984 453 980 493 q 1003 384 989 413 q 1042 336 1017 355 q 1110 308 1077 309 q 1168 324 1143 306 q 1212 372 1192 342 q 1244 434 1232 401 q 1260 499 1255 467 q 1275 655 1271 574 q 1281 852 1280 736 q 1284 1010 1282 968 q 1309 1092 1285 1057 q 1365 1142 1332 1126 q 1438 1158 1399 1158 q 1511 1142 1478 1158 q 1568 1092 1545 1126 q 1592 1010 1590 1057 q 1595 879 1593 963 q 1598 725 1596 794 q 1602 594 1600 656 q 1603 547 1602 588 q 1604 489 1603 507 q 1610 433 1605 471 q 1621 374 1614 395 q 1642 328 1628 352 q 1674 289 1655 303 z "},"x":{"ha":1014,"x_min":33,"x_max":990,"o":"m 701 524 q 741 475 710 512 q 784 424 772 439 q 823 376 797 408 q 865 324 849 345 q 902 276 881 303 q 941 223 923 248 q 954 86 989 153 q 865 11 926 34 q 730 18 792 -16 q 675 68 698 36 q 506 279 620 146 q 336 68 388 142 q 207 0 288 -1 q 89 46 139 0 q 44 158 35 94 q 71 223 48 191 q 114 282 92 253 q 165 348 136 312 q 209 402 194 384 q 263 467 224 421 q 311 524 301 512 q 162 751 224 646 q 56 964 100 855 q 69 1079 33 1020 q 163 1154 105 1139 q 276 1139 225 1170 q 351 1046 327 1107 q 506 771 404 916 q 660 1046 606 913 q 736 1139 685 1107 q 849 1154 787 1171 q 943 1079 907 1137 q 956 964 979 1020 q 850 751 912 855 q 701 524 787 647 z "},"y":{"ha":1029,"x_min":-56,"x_max":984,"o":"m 973 1014 l 979 141 q 981 52 979 109 q 983 -42 983 -5 q 983 -135 984 -80 q 977 -230 981 -190 q 962 -319 972 -269 q 936 -407 952 -368 q 895 -486 920 -446 q 837 -559 870 -526 q 658 -672 762 -633 q 445 -709 554 -711 q 237 -669 336 -708 q -18 -119 -56 -553 q 58 5 -11 -36 q 184 25 117 39 q 277 -43 251 12 q 290 -119 293 -77 q 286 -168 287 -148 q 284 -214 284 -187 q 286 -259 283 -241 q 293 -298 288 -277 q 306 -334 298 -320 q 328 -363 315 -349 q 359 -385 341 -377 q 401 -397 377 -393 q 456 -401 426 -402 q 673 -147 669 -396 q 675 51 675 -49 q 531 12 606 19 q 385 21 456 4 q 248 84 313 37 q 138 201 183 130 q 84 321 104 254 q 56 452 63 389 q 47 596 48 516 q 51 738 47 676 q 59 881 54 800 q 64 1010 64 962 q 82 1083 65 1051 q 127 1132 100 1115 q 188 1156 155 1148 q 253 1156 220 1164 q 312 1132 286 1148 q 356 1083 339 1115 q 372 1010 372 1051 q 368 815 372 989 q 365 550 364 641 q 376 416 366 456 q 445 323 394 349 q 544 321 498 296 q 620 402 589 347 q 673 460 640 440 q 666 1014 667 828 q 683 1086 666 1055 q 726 1135 699 1118 q 786 1159 753 1152 q 851 1159 819 1167 q 911 1135 884 1152 q 956 1086 939 1118 q 973 1014 973 1055 z "},"ý":{"ha":1029,"x_min":-56,"x_max":984,"o":"m 973 1014 l 979 141 q 981 52 979 109 q 983 -42 983 -5 q 983 -135 984 -80 q 977 -230 981 -190 q 962 -319 972 -269 q 936 -407 952 -368 q 895 -486 920 -446 q 837 -559 870 -526 q 658 -672 762 -633 q 445 -709 554 -711 q 237 -669 336 -708 q -18 -119 -56 -553 q 58 5 -11 -36 q 184 25 117 39 q 277 -43 251 12 q 290 -119 293 -77 q 286 -168 287 -148 q 284 -214 284 -187 q 286 -259 283 -241 q 293 -298 288 -277 q 306 -334 298 -320 q 328 -363 315 -349 q 359 -385 341 -377 q 401 -397 377 -393 q 456 -401 426 -402 q 673 -147 669 -396 q 675 51 675 -49 q 531 12 606 19 q 385 21 456 4 q 248 84 313 37 q 138 201 183 130 q 84 321 104 254 q 56 452 63 389 q 47 596 48 516 q 51 738 47 676 q 59 881 54 800 q 64 1010 64 962 q 82 1083 65 1051 q 127 1132 100 1115 q 188 1156 155 1148 q 253 1156 220 1164 q 312 1132 286 1148 q 356 1083 339 1115 q 372 1010 372 1051 q 368 815 372 989 q 365 550 364 641 q 376 416 366 456 q 445 323 394 349 q 544 321 498 296 q 620 402 589 347 q 673 460 640 440 q 666 1014 667 828 q 683 1086 666 1055 q 726 1135 699 1118 q 786 1159 753 1152 q 851 1159 819 1167 q 911 1135 884 1152 q 956 1086 939 1118 q 973 1014 973 1055 z "},"ÿ":{"ha":1029,"x_min":-56,"x_max":984,"o":"m 973 1014 l 979 141 q 981 52 979 109 q 983 -42 983 -5 q 983 -135 984 -80 q 977 -230 981 -190 q 962 -319 972 -269 q 936 -407 952 -368 q 895 -486 920 -446 q 837 -559 870 -526 q 658 -672 762 -633 q 445 -709 554 -711 q 237 -669 336 -708 q -18 -119 -56 -553 q 58 5 -11 -36 q 184 25 117 39 q 277 -43 251 12 q 290 -119 293 -77 q 286 -168 287 -148 q 284 -214 284 -187 q 286 -259 283 -241 q 293 -298 288 -277 q 306 -334 298 -320 q 328 -363 315 -349 q 359 -385 341 -377 q 401 -397 377 -393 q 456 -401 426 -402 q 673 -147 669 -396 q 675 51 675 -49 q 531 12 606 19 q 385 21 456 4 q 248 84 313 37 q 138 201 183 130 q 84 321 104 254 q 56 452 63 389 q 47 596 48 516 q 51 738 47 676 q 59 881 54 800 q 64 1010 64 962 q 82 1083 65 1051 q 127 1132 100 1115 q 188 1156 155 1148 q 253 1156 220 1164 q 312 1132 286 1148 q 356 1083 339 1115 q 372 1010 372 1051 q 368 815 372 989 q 365 550 364 641 q 376 416 366 456 q 445 323 394 349 q 544 321 498 296 q 620 402 589 347 q 673 460 640 440 q 666 1014 667 828 q 683 1086 666 1055 q 726 1135 699 1118 q 786 1159 753 1152 q 851 1159 819 1167 q 911 1135 884 1152 q 956 1086 939 1118 q 973 1014 973 1055 z "},"z":{"ha":986,"x_min":40,"x_max":995,"o":"m 826 307 q 957 223 919 302 q 957 70 995 144 q 826 0 919 -5 q 510 16 721 5 q 195 32 300 26 q 117 57 152 34 q 64 113 82 79 q 43 184 47 147 q 59 258 40 222 q 117 317 78 294 q 168 352 143 332 q 211 388 193 372 q 254 433 229 403 q 289 475 279 463 q 326 526 300 488 q 357 572 352 564 q 391 624 363 581 q 401 640 397 634 q 463 737 422 672 q 525 834 505 802 q 369 825 473 831 q 214 815 265 819 q 83 884 121 810 q 83 1036 45 958 q 214 1121 121 1115 q 515 1140 314 1128 q 816 1158 715 1152 q 879 1146 849 1160 q 929 1107 909 1133 q 961 1052 949 1082 q 969 989 972 1022 q 948 928 966 956 q 622 418 664 483 q 553 320 588 367 q 690 314 599 318 q 826 307 781 309 z "}," ":{"ha":423,"x_min":0,"x_max":0,"o":""},"­":{"ha":0,"x_min":0,"x_max":0,"o":""},"":{"ha":1731,"x_min":40,"x_max":2279,"o":"m 1992 1479 q 2161 1476 2080 1522 q 2249 1375 2222 1441 q 2244 1237 2279 1299 q 2171 1173 2221 1196 q 1438 1050 1801 991 q 1437 850 1438 983 q 1436 649 1436 716 q 1437 393 1436 435 q 1439 373 1437 389 q 1440 351 1440 357 q 1451 321 1449 330 q 1459 306 1453 308 q 1551 340 1501 339 q 1639 314 1601 340 q 1700 250 1676 288 q 1717 166 1724 213 q 1668 83 1710 119 q 1448 1 1571 -3 q 1234 100 1324 5 q 1130 402 1136 204 q 1130 1116 1123 640 q 1025 1133 1068 1127 q 1029 155 1021 606 q 1003 66 1029 102 q 937 16 976 29 q 852 9 897 3 q 775 41 808 15 q 603 4 686 14 q 430 9 519 -6 q 273 68 340 24 q 163 172 210 109 q 90 308 117 235 q 52 458 63 381 q 44 611 40 535 q 146 930 53 786 q 397 1136 240 1075 q 473 1158 431 1149 q 440 1219 450 1186 q 457 1351 420 1291 q 564 1438 494 1411 q 727 1482 642 1468 q 768 1550 738 1522 q 835 1585 798 1577 q 910 1587 872 1592 q 978 1556 947 1581 q 1021 1493 1009 1531 q 1139 1479 1090 1487 q 1176 1541 1149 1516 q 1236 1576 1202 1567 q 1305 1581 1269 1586 q 1371 1561 1341 1577 q 1420 1511 1401 1544 q 1440 1434 1440 1478 l 1440 1411 q 1637 1385 1555 1385 q 1992 1479 1801 1385 m 435 325 q 523 307 471 308 q 624 315 576 305 q 719 342 672 326 q 715 768 715 578 q 692 796 705 779 q 618 854 664 840 q 527 856 573 869 q 442 809 480 843 q 366 686 388 761 q 353 531 345 610 q 384 404 361 469 q 435 325 406 338 z "},"":{"ha":1083,"x_min":-248,"x_max":1611,"o":"m 62 786 q 79 859 62 827 q 123 907 96 890 q 183 931 150 924 q 249 931 216 939 q 309 907 281 924 q 353 859 336 890 q 370 786 370 827 q 368 149 372 330 q 350 76 368 108 q 305 27 332 44 q 244 3 277 11 q 179 3 212 -5 q 119 27 146 11 q 76 76 92 44 q 60 149 60 108 q 62 786 64 330 m 1324 1479 q 1493 1476 1412 1522 q 1581 1375 1554 1441 q 1576 1237 1611 1299 q 1503 1173 1553 1196 q 770 1050 1133 991 q 769 850 770 983 q 767 649 768 716 q 768 393 767 435 q 770 373 768 389 q 772 351 772 357 q 783 321 779 334 q 790 306 785 308 q 882 340 832 339 q 970 314 932 340 q 1031 250 1008 288 q 1048 166 1055 213 q 1000 83 1042 119 q 779 1 903 -3 q 565 100 655 5 q 461 402 467 204 q 461 1116 454 640 q 303 1138 374 1133 q 150 1134 233 1143 q -9 1095 66 1125 q -101 1093 -56 1080 q -181 1142 -146 1107 q -228 1219 -216 1177 q -211 1351 -248 1291 q -104 1438 -174 1411 q 470 1479 135 1531 q 507 1541 480 1516 q 567 1576 534 1567 q 636 1581 600 1586 q 703 1561 673 1577 q 752 1511 732 1544 q 771 1434 771 1478 l 771 1411 q 968 1385 886 1385 q 1324 1479 1133 1385 z "},"":{"ha":1063,"x_min":-248,"x_max":1611,"o":"m 1324 1479 q 1493 1476 1412 1522 q 1581 1375 1554 1441 q 1576 1237 1611 1299 q 1503 1173 1553 1196 q 770 1050 1133 991 q 769 850 770 983 q 767 649 768 716 q 768 393 767 435 q 770 373 768 389 q 772 351 772 357 q 783 321 779 334 q 790 306 785 308 q 882 340 832 339 q 970 314 932 340 q 1031 250 1008 288 q 1048 166 1055 213 q 1000 83 1042 119 q 779 1 903 -3 q 565 100 655 5 q 461 402 467 204 q 461 1116 454 640 q 362 1132 393 1128 q 360 149 366 476 q 342 76 359 108 q 297 27 324 44 q 237 3 270 11 q 171 3 204 -5 q 112 27 138 11 q 68 76 85 44 q 53 149 52 108 q 55 1116 58 412 q -9 1095 22 1107 q -101 1093 -56 1080 q -181 1142 -146 1107 q -228 1219 -216 1177 q -211 1351 -248 1291 q -104 1438 -174 1411 q 470 1479 135 1531 q 507 1541 480 1516 q 567 1576 534 1567 q 636 1581 600 1586 q 703 1561 673 1577 q 752 1511 732 1544 q 771 1434 771 1478 l 771 1411 q 968 1385 886 1385 q 1324 1479 1133 1385 z "},"":{"ha":1719,"x_min":-665,"x_max":1681,"o":"m 1573 989 q 1662 796 1643 905 q 1668 557 1681 687 q 1627 333 1655 429 q 1534 163 1598 237 q 1154 3 1416 28 q 907 33 1012 -10 q 846 5 880 13 q 778 2 812 -3 q 716 25 745 8 q 671 74 688 42 q 654 149 654 106 q 659 538 659 408 q 659 549 659 542 q 659 559 659 555 q 659 613 657 589 q 659 1042 661 827 q 353 1050 510 1025 q 352 849 353 983 q 351 649 351 715 q 352 393 351 435 q 354 373 352 389 q 355 351 355 357 q 366 321 362 334 q 374 306 368 308 q 466 340 416 339 q 554 314 516 340 q 615 250 591 288 q 632 166 639 213 q 583 83 625 119 q 362 1 486 -3 q 149 100 239 5 q 44 402 50 205 q 45 1116 38 624 q -113 1138 -43 1133 q -268 1134 -184 1143 q -427 1095 -351 1125 q -518 1093 -473 1080 q -598 1142 -563 1107 q -645 1219 -633 1177 q -628 1351 -665 1291 q -521 1438 -591 1411 q 54 1479 -281 1531 q 91 1541 64 1516 q 151 1576 117 1567 q 220 1581 184 1586 q 286 1561 256 1577 q 335 1511 316 1544 q 355 1434 355 1478 l 355 1411 q 552 1385 470 1385 q 655 1394 600 1385 q 655 1415 655 1400 q 654 1436 654 1429 q 672 1510 654 1478 q 718 1560 690 1543 q 780 1582 745 1577 q 848 1579 815 1587 q 909 1549 881 1571 q 951 1494 937 1527 q 1038 1491 996 1504 q 1111 1450 1080 1478 q 1159 1384 1141 1422 q 1178 1307 1177 1345 q 1155 1232 1178 1268 q 1086 1173 1132 1195 q 1035 1148 1053 1156 q 1183 1157 1105 1166 q 1407 1108 1309 1146 q 1573 989 1506 1070 m 1361 557 q 1363 576 1361 557 q 1366 598 1366 595 q 1368 620 1367 602 q 1370 644 1370 638 q 1371 666 1370 650 q 1370 690 1371 682 q 1368 712 1369 699 q 1364 735 1367 726 q 1357 754 1361 744 q 1349 774 1354 765 q 1284 828 1327 812 q 1183 849 1242 844 q 1087 836 1129 855 q 1021 780 1046 817 q 983 698 996 743 q 967 603 970 654 l 967 532 q 1002 345 970 393 q 1030 317 1013 326 q 1071 306 1046 307 q 1109 306 1095 305 q 1154 311 1124 307 q 1249 337 1211 319 q 1309 388 1286 355 q 1343 459 1332 420 q 1361 557 1354 498 z "},"":{"ha":1617,"x_min":-665,"x_max":1575,"o":"m 1514 902 q 1562 720 1548 825 q 1573 536 1575 615 q 1565 332 1571 457 q 1557 150 1558 206 q 1539 77 1556 109 q 1494 29 1522 45 q 1434 4 1467 12 q 1368 4 1401 -3 q 1309 29 1335 12 q 1265 77 1282 45 q 1249 150 1249 109 q 1253 341 1250 186 q 1256 579 1255 496 q 1257 615 1256 583 q 1257 659 1257 648 q 1255 697 1257 669 q 1249 740 1253 725 q 1237 774 1245 755 q 1217 809 1229 794 q 1157 850 1192 841 q 1087 848 1121 859 q 1025 809 1053 836 q 963 771 997 782 q 958 149 963 425 q 939 76 957 108 q 894 27 922 44 q 834 3 867 11 q 768 3 801 -5 q 709 27 736 11 q 665 76 682 44 q 650 149 649 108 q 654 1042 657 554 q 353 1050 506 1025 q 352 849 353 983 q 351 649 351 715 q 352 393 351 435 q 354 373 352 389 q 355 351 355 357 q 366 321 362 334 q 374 306 368 308 q 466 340 416 339 q 554 314 516 340 q 615 250 591 288 q 632 166 639 213 q 583 83 625 119 q 362 1 486 -3 q 149 100 239 5 q 44 402 50 205 q 45 1116 38 624 q -113 1138 -43 1133 q -268 1134 -184 1143 q -427 1095 -351 1125 q -518 1093 -473 1080 q -598 1142 -563 1107 q -645 1219 -633 1177 q -628 1351 -665 1291 q -521 1438 -591 1411 q 54 1479 -281 1531 q 91 1541 64 1516 q 151 1576 117 1567 q 220 1581 184 1586 q 286 1561 256 1577 q 335 1511 316 1544 q 355 1434 355 1478 l 355 1411 q 552 1385 470 1385 q 650 1393 602 1385 q 650 1414 650 1400 q 650 1436 650 1428 q 667 1510 649 1478 q 713 1560 685 1543 q 776 1582 741 1577 q 844 1579 811 1587 q 905 1549 877 1571 q 946 1493 932 1527 q 1034 1493 991 1505 q 1108 1453 1078 1480 q 1158 1386 1139 1425 q 1177 1309 1177 1348 q 1155 1232 1178 1270 q 1086 1173 1133 1195 q 1032 1147 1042 1151 q 1221 1147 1128 1167 q 1393 1064 1314 1127 q 1514 902 1472 1000 z "},"":{"ha":1023,"x_min":-665,"x_max":1194,"o":"m 668 786 q 685 859 668 827 q 729 907 702 890 q 788 931 755 924 q 854 931 821 939 q 914 907 887 924 q 959 859 941 890 q 976 786 976 827 q 974 149 977 330 q 956 76 973 108 q 910 27 938 44 q 850 3 883 11 q 785 3 817 -5 q 725 27 752 11 q 682 76 698 44 q 666 149 665 108 q 668 786 669 330 m 907 1479 q 1076 1476 995 1522 q 1164 1375 1137 1441 q 1159 1237 1194 1299 q 1086 1173 1136 1196 q 353 1050 715 991 q 352 849 353 983 q 351 649 351 715 q 352 393 351 435 q 354 373 352 389 q 355 351 355 357 q 366 321 362 334 q 374 306 368 308 q 466 340 416 339 q 554 314 516 340 q 615 250 591 288 q 632 166 639 213 q 583 83 625 119 q 362 1 486 -3 q 149 100 239 5 q 44 402 50 205 q 45 1116 38 624 q -113 1138 -43 1133 q -268 1134 -184 1143 q -427 1095 -351 1125 q -518 1093 -473 1080 q -598 1142 -563 1107 q -645 1219 -633 1177 q -628 1351 -665 1291 q -521 1438 -591 1411 q 54 1479 -281 1531 q 91 1541 64 1516 q 151 1576 117 1567 q 220 1581 184 1586 q 286 1561 256 1577 q 335 1511 316 1544 q 355 1434 355 1478 l 355 1411 q 552 1385 470 1385 q 907 1479 715 1385 z "},"":{"ha":1576,"x_min":-646,"x_max":1591,"o":"m 1362 1136 q 1417 1157 1389 1152 q 1470 1155 1446 1162 q 1515 1135 1493 1149 q 1552 1101 1537 1121 q 1578 1057 1567 1080 q 1590 1007 1589 1034 q 1585 957 1591 981 q 1562 910 1579 932 q 1517 871 1544 887 q 1271 706 1402 802 q 1385 507 1352 593 q 1418 409 1402 460 q 1454 289 1434 357 q 1482 190 1473 222 q 1479 90 1499 136 q 1419 24 1460 45 q 1332 0 1378 3 q 1244 25 1286 -3 q 1186 108 1202 54 q 1160 198 1177 138 q 1130 306 1144 258 q 1099 394 1116 353 q 1034 512 1078 449 q 1020 498 1029 507 q 1004 484 1010 489 q 1000 149 1004 371 q 981 77 999 109 q 937 28 964 45 q 877 4 909 12 q 811 4 844 -4 q 751 28 778 12 q 708 77 724 45 q 692 149 692 109 q 696 1044 700 555 q 372 1050 536 1023 q 371 849 372 983 q 370 649 370 715 q 372 393 370 435 q 373 373 372 389 q 375 351 375 357 q 385 321 382 334 q 393 306 387 308 q 485 340 435 339 q 573 314 536 340 q 634 250 610 288 q 652 166 659 213 q 603 83 645 119 q 382 1 506 -3 q 168 100 258 5 q 64 402 70 205 q 64 1116 57 640 q -94 1138 -24 1133 q -248 1134 -164 1143 q -407 1095 -332 1125 q -498 1093 -454 1080 q -578 1142 -543 1107 q -625 1219 -613 1177 q -608 1351 -646 1291 q -501 1438 -571 1411 q 73 1479 -262 1531 q 110 1541 83 1516 q 170 1576 136 1567 q 239 1581 203 1586 q 306 1561 275 1577 q 355 1511 336 1544 q 374 1434 374 1478 l 374 1411 q 572 1385 490 1385 q 692 1397 627 1385 l 692 1436 q 709 1511 692 1478 q 755 1560 727 1544 q 817 1583 783 1577 q 885 1580 852 1588 q 945 1551 918 1573 q 987 1497 973 1530 q 1070 1487 1030 1503 q 1138 1443 1110 1472 q 1182 1377 1166 1415 q 1197 1302 1198 1339 q 1173 1230 1196 1265 q 1106 1173 1150 1194 q 1004 1126 1055 1147 q 1005 890 1005 969 q 1362 1136 1173 1022 z "},"":{"ha":1242,"x_min":-646,"x_max":1214,"o":"m 927 1479 q 1095 1476 1015 1522 q 1183 1375 1157 1441 q 1179 1237 1214 1299 q 1106 1173 1156 1196 q 992 1122 1045 1143 q 990 149 995 414 q 972 76 989 108 q 927 27 954 44 q 866 3 899 11 q 801 3 833 -5 q 741 27 768 11 q 698 76 714 44 q 682 149 682 108 q 685 1043 688 446 q 372 1050 530 1025 q 371 849 372 983 q 370 649 370 715 q 372 393 370 435 q 373 373 372 389 q 375 351 375 357 q 385 321 382 334 q 393 306 387 308 q 485 340 435 339 q 573 314 536 340 q 634 250 610 288 q 652 166 659 213 q 603 83 645 119 q 382 1 506 -3 q 168 100 258 5 q 64 402 70 205 q 64 1116 57 640 q -94 1138 -24 1133 q -248 1134 -164 1143 q -407 1095 -332 1125 q -498 1093 -454 1080 q -578 1142 -543 1107 q -625 1219 -613 1177 q -608 1351 -646 1291 q -501 1438 -571 1411 q 73 1479 -262 1531 q 110 1541 83 1516 q 170 1576 136 1567 q 239 1581 203 1586 q 306 1561 275 1577 q 355 1511 336 1544 q 374 1434 374 1478 l 374 1411 q 572 1385 490 1385 q 927 1479 735 1385 z "},"":{"ha":1168,"x_min":-665,"x_max":1235,"o":"m 952 300 q 1095 334 1017 356 q 1194 263 1158 317 q 1211 140 1235 202 q 1169 83 1199 109 q 1053 15 1115 35 q 935 2 991 -5 q 826 38 879 9 q 732 111 772 66 q 665 216 692 156 q 633 342 638 276 q 624 520 626 422 q 623 685 622 618 q 627 870 624 753 q 631 1040 631 987 q 353 1050 494 1027 q 352 849 353 983 q 351 649 351 715 q 352 393 351 435 q 354 373 352 389 q 355 351 355 357 q 366 321 362 334 q 374 306 368 308 q 466 340 416 339 q 554 314 516 340 q 615 250 591 288 q 632 166 639 213 q 583 83 625 119 q 362 1 486 -3 q 149 100 239 5 q 44 402 50 205 q 45 1116 38 624 q -113 1138 -43 1133 q -268 1134 -184 1143 q -427 1095 -351 1125 q -518 1093 -473 1080 q -598 1142 -563 1107 q -645 1219 -633 1177 q -628 1351 -665 1291 q -521 1438 -591 1411 q 54 1479 -281 1531 q 91 1541 64 1516 q 151 1576 117 1567 q 220 1582 184 1586 q 286 1561 256 1578 q 335 1512 316 1545 q 355 1435 355 1478 l 355 1411 q 552 1385 470 1385 q 907 1479 715 1385 q 1076 1476 995 1522 q 1164 1375 1137 1441 q 1159 1237 1194 1299 q 1086 1173 1136 1196 q 939 1109 1004 1133 q 937 538 936 665 q 938 450 937 509 q 939 362 939 391 q 940 359 939 361 q 940 355 940 357 q 949 336 943 347 q 956 320 954 325 q 958 310 958 315 q 952 300 958 304 m 940 354 z "}}}
